<svg xmlns="http://www.w3.org/2000/svg" width="31.822" height="23.603" viewBox="0 0 31.822 23.603">
  <g id="_360-degrees" data-name="360-degrees" transform="translate(0)">
    <path id="Path_36" data-name="Path 36" d="M308.232,155.784a.932.932,0,0,1-.117-1.857,20.364,20.364,0,0,0,7.428-2.248c1.687-.983,2.615-2.138,2.615-3.253,0-1.229-1.087-2.234-2-2.861a.932.932,0,0,1,1.057-1.536c1.836,1.263,2.806,2.783,2.806,4.4,0,1.832-1.224,3.514-3.541,4.863a21.916,21.916,0,0,1-8.131,2.487.991.991,0,0,1-.119.007Zm0,0" transform="translate(-288.201 -134.923)" fill="#fff"/>
    <path id="Path_37" data-name="Path 37" d="M15.684,148.658,13.2,146.172a.932.932,0,0,0-1.319,1.318l.726.726a22.462,22.462,0,0,1-7.275-1.878c-2.2-1.059-3.466-2.409-3.466-3.7,0-1.1.9-2.237,2.547-3.211a.932.932,0,1,0-.951-1.6C.6,139.517,0,141.375,0,142.636c0,2.068,1.606,3.98,4.523,5.383a24.809,24.809,0,0,0,8.382,2.1l-1.026,1.026a.932.932,0,0,0,1.319,1.319l2.486-2.486a.933.933,0,0,0,0-1.319Zm0,0" transform="translate(0 -129.133)" fill="#fff"/>
    <path id="Path_38" data-name="Path 38" d="M97.4,96.168v-.224c0-.791-.484-.945-1.134-.945-.4,0-.531-.354-.531-.708s.13-.709.531-.709c.449,0,.921-.059.921-1.016,0-.685-.39-.85-.874-.85-.579,0-.874.142-.874.6,0,.4-.177.673-.862.673-.85,0-.956-.177-.956-.744,0-.921.661-2.114,2.692-2.114,1.5,0,2.633.543,2.633,2.137a2.074,2.074,0,0,1-.909,1.937,1.712,1.712,0,0,1,1.2,1.736v.224c0,1.937-1.334,2.669-2.988,2.669-2.031,0-2.81-1.24-2.81-2.232,0-.531.224-.673.874-.673.756,0,.945.165.945.614,0,.555.52.685,1.051.685C97.118,97.23,97.4,96.935,97.4,96.168Zm0,0" transform="translate(-87.638 -84.531)" fill="#fff"/>
    <path id="Path_39" data-name="Path 39" d="M214.571,95.943v.106c0,2.031-1.264,2.787-2.893,2.787s-2.905-.756-2.905-2.787V92.919c0-2.031,1.311-2.787,3.011-2.787,2,0,2.787,1.24,2.787,2.22,0,.567-.272.744-.862.744-.508,0-.957-.13-.957-.673,0-.449-.472-.685-1.027-.685-.7,0-1.11.366-1.11,1.181v1.063a1.889,1.889,0,0,1,1.476-.52,2.214,2.214,0,0,1,2.48,2.48Zm-3.956.236c0,.815.4,1.169,1.063,1.169s1.051-.354,1.051-1.169v-.106c0-.862-.39-1.193-1.063-1.193a.948.948,0,0,0-1.051,1.086Zm0,0" transform="translate(-195.797 -84.531)" fill="#fff"/>
    <path id="Path_40" data-name="Path 40" d="M325.055,96.049V92.919c0-2.031,1.263-2.787,2.893-2.787s2.9.756,2.9,2.787v3.129c0,2.031-1.275,2.787-2.9,2.787S325.055,98.08,325.055,96.049Zm3.956-3.129c0-.815-.4-1.181-1.063-1.181s-1.051.366-1.051,1.181v3.129c0,.815.39,1.181,1.051,1.181s1.063-.366,1.063-1.181Zm0,0" transform="translate(-304.852 -84.531)" fill="#fff"/>
    <path id="Path_41" data-name="Path 41" d="M412.149,5.594a2.8,2.8,0,1,1,2.8-2.8A2.8,2.8,0,0,1,412.149,5.594Zm0-3.729a.932.932,0,1,0,.932.932A.933.933,0,0,0,412.149,1.865Zm0,0" transform="translate(-383.91)" fill="#fff"/>
  </g>
</svg>
