<svg xmlns="http://www.w3.org/2000/svg" width="30" height="29.999" viewBox="0 0 30 29.999">
  <path id="Arrow_Back" d="M8.43.5a2.342,2.342,0,0,0-1.657.688L1.033,6.915a3.517,3.517,0,0,0,0,4.98l5.74,5.728a2.349,2.349,0,0,0,4.008-1.66V9.577c9.3,0,16.875,8.57,16.875,17.875v1.875a1.172,1.172,0,0,0,2.344,0V27.452A19.219,19.219,0,0,0,10.781,8.233c-1.292,0-2.344.051-2.344,1.344v6.386h0l-.006,0,0,0-5.74-5.728a1.174,1.174,0,0,1,0-1.662l5.74-5.728,0,0,.006,0h0V9.131c0,.647.525.172,1.172.172s1.172.475,1.172-.172V2.847A2.352,2.352,0,0,0,8.43.5Zm0,0" transform="translate(0 -0.5)" fill="#515151"/>
</svg>
