<svg xmlns="http://www.w3.org/2000/svg" width="35.333" height="35.333" viewBox="0 0 35.333 35.333">
  <g id="facebook" transform="translate(-22 -1)">
    <g id="Group_202" data-name="Group 202" transform="translate(22 1)">
      <path id="Path_135" data-name="Path 135" d="M31.193,0H4.141A4.145,4.145,0,0,0,0,4.141V31.193a4.145,4.145,0,0,0,4.141,4.141H31.193a4.145,4.145,0,0,0,4.141-4.141V4.141A4.145,4.145,0,0,0,31.193,0Zm1.38,31.193a1.382,1.382,0,0,1-1.38,1.38H23.325V21.324H27.59l.7-4.279H23.325V14.078a2.035,2.035,0,0,1,2.07-2.07h2.829V7.729H25.4a6.348,6.348,0,0,0-6.347,6.361v2.955H14.906v4.279h4.142V32.573H4.141a1.382,1.382,0,0,1-1.38-1.38V4.141a1.382,1.382,0,0,1,1.38-1.38H31.193a1.382,1.382,0,0,1,1.38,1.38Z" fill="#62909a"/>
    </g>
  </g>
</svg>
