<svg xmlns="http://www.w3.org/2000/svg" width="37.558" height="37.566" viewBox="0 0 37.558 37.566">
  <g id="instagram" transform="translate(-0.449)">
    <path id="Path_132" data-name="Path 132" d="M37.912,11.044a13.727,13.727,0,0,0-.873-4.557,9.623,9.623,0,0,0-5.5-5.5A13.762,13.762,0,0,0,26.985.118C24.974.022,24.335,0,19.235,0S13.5.022,11.493.11A13.731,13.731,0,0,0,6.936.983,9.166,9.166,0,0,0,3.6,3.156,9.249,9.249,0,0,0,1.439,6.48a13.763,13.763,0,0,0-.873,4.557c-.1,2.011-.118,2.649-.118,7.75s.022,5.739.11,7.742a13.726,13.726,0,0,0,.873,4.557,9.621,9.621,0,0,0,5.5,5.5,13.764,13.764,0,0,0,4.557.873c2,.088,2.642.11,7.742.11s5.739-.022,7.742-.11a13.723,13.723,0,0,0,4.557-.873,9.609,9.609,0,0,0,5.5-5.5,13.773,13.773,0,0,0,.873-4.557c.088-2,.11-2.642.11-7.742s-.007-5.739-.1-7.742ZM34.529,26.382a10.3,10.3,0,0,1-.646,3.486,6.231,6.231,0,0,1-3.567,3.567,10.333,10.333,0,0,1-3.486.646c-1.981.088-2.576.11-7.588.11s-5.614-.022-7.588-.11a10.291,10.291,0,0,1-3.486-.646,5.78,5.78,0,0,1-2.157-1.4,5.84,5.84,0,0,1-1.4-2.157,10.335,10.335,0,0,1-.646-3.486c-.088-1.981-.11-2.576-.11-7.588s.022-5.614.11-7.588A10.291,10.291,0,0,1,4.61,7.728,5.71,5.71,0,0,1,6.019,5.57a5.831,5.831,0,0,1,2.157-1.4,10.34,10.34,0,0,1,3.486-.646c1.981-.088,2.576-.11,7.588-.11s5.614.022,7.588.11a10.3,10.3,0,0,1,3.486.646,5.776,5.776,0,0,1,2.157,1.4,5.839,5.839,0,0,1,1.4,2.158,10.338,10.338,0,0,1,.646,3.486c.088,1.981.11,2.576.11,7.588s-.022,5.6-.11,7.581Zm0,0" transform="translate(0 0)" fill="#62909a"/>
    <path id="Path_133" data-name="Path 133" d="M134.6,124.5a9.65,9.65,0,1,0,9.65,9.65A9.653,9.653,0,0,0,134.6,124.5Zm0,15.91a6.26,6.26,0,1,1,6.26-6.26A6.261,6.261,0,0,1,134.6,140.41Zm0,0" transform="translate(-115.364 -115.364)" fill="#62909a"/>
    <path id="Path_134" data-name="Path 134" d="M366.956,90.855A2.253,2.253,0,1,1,364.7,88.6,2.253,2.253,0,0,1,366.956,90.855Zm0,0" transform="translate(-335.436 -82.1)" fill="#62909a"/>
  </g>
</svg>
