<svg xmlns="http://www.w3.org/2000/svg" xmlns:xlink="http://www.w3.org/1999/xlink" width="142.954" height="42.552" viewBox="0 0 142.954 42.552">
  <defs>
    <clipPath id="clip-path">
      <rect id="Rectangle_103" data-name="Rectangle 103" width="142.954" height="42.552" transform="translate(0 0)" fill="none"/>
    </clipPath>
    <clipPath id="clip-path-2">
      <path id="Path_123" data-name="Path 123" d="M4.9,1.962a.918.918,0,0,0-.4.126,1.375,1.375,0,0,0-.54.648,8.3,8.3,0,0,0-.45,1.1c-.132.4-.252.787-.36,1.17s-.186.684-.234.9a79.924,79.924,0,0,0-2.232,11.5A99.6,99.6,0,0,0,0,29.124a2.171,2.171,0,0,0,.18.882.736.736,0,0,0,.755.414,2.148,2.148,0,0,0,.829-.18,2.18,2.18,0,0,0,.774-.54,1.469,1.469,0,0,0,.306-.63,2.619,2.619,0,0,0,.036-.756q-.036-.414-.036-.882c0-.288.018-.689.054-1.206s.077-1.049.126-1.6.113-1.08.2-1.584.162-.9.234-1.188a14.866,14.866,0,0,0,2.1,1.224q1.494.756,3.2,1.494t3.258,1.278a7.855,7.855,0,0,0,2.268.54,1.858,1.858,0,0,0,1.35-.5,1.769,1.769,0,0,0,.522-1.332.382.382,0,0,0-.234-.342,1.8,1.8,0,0,0-.558-.18,3.935,3.935,0,0,0-.648-.054,1.907,1.907,0,0,1-.432-.036,2.9,2.9,0,0,1-.523-.108c-.156-.048-.318-.1-.485-.144A30.65,30.65,0,0,1,9.126,22.05a22.288,22.288,0,0,1-3.834-2.322Q6.12,18.576,7,17.46t1.746-2.232Q9.036,14.87,9.72,14t1.53-1.962q.844-1.1,1.782-2.322t1.692-2.34q.755-1.115,1.242-1.962a2.988,2.988,0,0,0,.486-1.206.487.487,0,0,0-.288-.468,1.261,1.261,0,0,0-1.62.4L4,17.712q.252-2.592.738-5.112t1.17-5c.072-.264.174-.6.306-1.008s.264-.822.4-1.242.246-.822.342-1.206A4.039,4.039,0,0,0,7.092,3.2q0-.864-.54-1.062a3.679,3.679,0,0,0-1.26-.2c-.12,0-.252.006-.395.018" fill="none"/>
    </clipPath>
    <linearGradient id="linear-gradient" y1="1.427" x2="0.061" y2="1.427" gradientUnits="objectBoundingBox">
      <stop offset="0" stop-color="#d18a27"/>
      <stop offset="0.04" stop-color="#db9c48"/>
      <stop offset="0.17" stop-color="#c48226"/>
      <stop offset="0.24" stop-color="#be7e2a"/>
      <stop offset="0.39" stop-color="#d6b368"/>
      <stop offset="0.52" stop-color="#ffe68f"/>
      <stop offset="0.62" stop-color="#f4d480"/>
      <stop offset="0.72" stop-color="#fbdc7d"/>
      <stop offset="0.85" stop-color="#e5bb57"/>
      <stop offset="0.94" stop-color="#c48226"/>
      <stop offset="1" stop-color="#d2990e"/>
    </linearGradient>
    <clipPath id="clip-path-3">
      <path id="Path_124" data-name="Path 124" d="M21.834,14.58a11.766,11.766,0,0,0-2.592,2.682,15.237,15.237,0,0,0-1.818,3.4,9.173,9.173,0,0,0-.684,3.2,8.629,8.629,0,0,0,.09,1.152,5.046,5.046,0,0,0,.324,1.224,2.651,2.651,0,0,0,.666.972,1.533,1.533,0,0,0,1.08.4,2.467,2.467,0,0,0,1.458-.54,9.46,9.46,0,0,0,1.422-1.3,15.4,15.4,0,0,0,1.243-1.566q.558-.81.917-1.35a12.252,12.252,0,0,0,.037,1.6,7.727,7.727,0,0,0,.359,1.836,4.4,4.4,0,0,0,.828,1.512,1.805,1.805,0,0,0,1.441.63,3.808,3.808,0,0,0,1.889-.54,9.4,9.4,0,0,0,1.8-1.332,16.055,16.055,0,0,0,1.566-1.692q.72-.9,1.224-1.584c.12-.192.283-.432.486-.72a1.383,1.383,0,0,0,.306-.756c0-.455-.193-.684-.576-.684a.7.7,0,0,0-.611.306q-.218.306-.4.594-.324.505-.972,1.332a19.091,19.091,0,0,1-1.4,1.6,12.125,12.125,0,0,1-1.548,1.35,2.529,2.529,0,0,1-1.439.576.724.724,0,0,1-.666-.45A3.619,3.619,0,0,1,25.92,25.4a8.055,8.055,0,0,1-.126-1.17q-.018-.575-.018-.864a16.791,16.791,0,0,1,.126-2,11.448,11.448,0,0,1,.414-2q.144-.4.4-1.044a3.06,3.06,0,0,0,.252-1.044.45.45,0,0,0-.27-.468,1.484,1.484,0,0,0-.557-.108.928.928,0,0,0-.775.342,3.689,3.689,0,0,0-.45.738c-.12.24-.293.607-.521,1.1s-.5,1.026-.811,1.6-.643,1.17-.99,1.782a16.724,16.724,0,0,1-1.062,1.656,9.4,9.4,0,0,1-1.044,1.224,1.406,1.406,0,0,1-.9.486.369.369,0,0,1-.4-.324,2.459,2.459,0,0,1-.073-.54,8.972,8.972,0,0,1,.828-3.834,11.578,11.578,0,0,1,2.232-3.222,11.743,11.743,0,0,1,1.675-1.458q.882-.628,1.853-1.206a1.331,1.331,0,0,0,.252-.162.329.329,0,0,0,.109-.27,1.031,1.031,0,0,0-.4-.756,1.192,1.192,0,0,0-.792-.36,5.044,5.044,0,0,0-3.042,1.08" fill="none"/>
    </clipPath>
    <linearGradient id="linear-gradient-2" x1="-0.977" y1="1.945" x2="-0.919" y2="1.945" xlink:href="#linear-gradient"/>
    <clipPath id="clip-path-4">
      <path id="Path_125" data-name="Path 125" d="M35.514,14.274a17.394,17.394,0,0,1,.414-2.862,6.3,6.3,0,0,1,1.259-.234,9.646,9.646,0,0,0,1.3-.2,12.252,12.252,0,0,1-.54,1.494q-.36.846-.809,1.728T36.2,15.876a13.914,13.914,0,0,1-.882,1.3q.11-1.439.2-2.9m1.044-6.606A26.594,26.594,0,0,1,37.4,5.094a13.858,13.858,0,0,1,1.116-2.3q.614-.99,1.224-.99a.234.234,0,0,1,.217.144,1.326,1.326,0,0,1,.107.324,1.919,1.919,0,0,1,.036.36V2.88a18.752,18.752,0,0,1-.288,3.132,23,23,0,0,1-.719,3.06,8.53,8.53,0,0,1-1.477.234q-.756.054-1.475.162a15.886,15.886,0,0,1,.414-1.8M39.815,0a3.023,3.023,0,0,0-2.286,1.152,12.367,12.367,0,0,0-1.817,2.754,24.755,24.755,0,0,0-1.332,3.24q-.542,1.64-.828,2.61a4.586,4.586,0,0,0-1.206.252.892.892,0,0,0-.63.936.763.763,0,0,0,.863.864,2.619,2.619,0,0,0,.757-.108,26.277,26.277,0,0,0-.486,3.51q-.129,1.782-.126,3.546c0,.456.023,1.026.072,1.71s.13,1.41.252,2.178a19.54,19.54,0,0,0,.5,2.3,10.454,10.454,0,0,0,.809,2.07,4.788,4.788,0,0,0,1.189,1.494,2.508,2.508,0,0,0,1.637.576,4.115,4.115,0,0,0,2.2-.7,12.255,12.255,0,0,0,2.124-1.71,18.431,18.431,0,0,0,1.836-2.142q.828-1.134,1.332-2c.143-.239.275-.48.4-.72a1.651,1.651,0,0,0,.181-.756.552.552,0,0,0-.145-.378.459.459,0,0,0-.36-.162.72.72,0,0,0-.54.288,3.492,3.492,0,0,0-.4.54c-.265.432-.617.967-1.062,1.6a16.291,16.291,0,0,1-1.476,1.818,11.385,11.385,0,0,1-1.692,1.494,2.957,2.957,0,0,1-1.71.63,1.333,1.333,0,0,1-1.17-.864,7.6,7.6,0,0,1-.683-2.016,18.852,18.852,0,0,1-.325-2.286c-.059-.756-.09-1.314-.09-1.674v-.4a.886.886,0,0,1,.073-.4,1.5,1.5,0,0,1,.233-.378c.109-.131.21-.257.307-.378.167-.239.336-.473.5-.7a6.352,6.352,0,0,0,.467-.738q.9-1.476,1.728-3.15a17.388,17.388,0,0,0,1.261-3.33c.143-.023.359-.072.647-.144s.588-.149.9-.234.6-.167.864-.252a4.265,4.265,0,0,0,.54-.2,2.241,2.241,0,0,0,.342-.27.568.568,0,0,0,.126-.414c0-.311-.168-.468-.5-.468a7.042,7.042,0,0,0-1.225.108q-.612.108-1.223.18a19.768,19.768,0,0,0,.593-2.808,20.849,20.849,0,0,0,.2-2.844c0-.264-.012-.581-.036-.954a4.34,4.34,0,0,0-.2-1.062A2.329,2.329,0,0,0,40.716.36,1.156,1.156,0,0,0,39.815,0Z" fill="none"/>
    </clipPath>
    <linearGradient id="linear-gradient-3" x1="-2.343" y1="1.464" x2="-2.269" y2="1.464" xlink:href="#linear-gradient"/>
    <clipPath id="clip-path-5">
      <path id="Path_126" data-name="Path 126" d="M46.493,40.806a1.757,1.757,0,0,1-.432-.576,2.53,2.53,0,0,1-.215-.756,5.772,5.772,0,0,1-.054-.738,6.72,6.72,0,0,1,.773-3.1,14.775,14.775,0,0,1,1.926-2.862,23.391,23.391,0,0,1,2.485-2.5q1.33-1.152,2.484-2.088a25.887,25.887,0,0,1-.4,2.646q-.288,1.458-.7,2.934a25.155,25.155,0,0,1-.971,2.826,10.023,10.023,0,0,1-1.279,2.286q-.25.324-.576.7a6.454,6.454,0,0,1-.7.7,4.273,4.273,0,0,1-.792.54,1.813,1.813,0,0,1-.847.216,1.03,1.03,0,0,1-.7-.234m-.918-25.83a2.392,2.392,0,0,0-.54.72,2.828,2.828,0,0,0-.269.666c-.061.229-.126.463-.2.7q-.5,1.548-.882,3.2a14.742,14.742,0,0,0-.377,3.276,7.091,7.091,0,0,0,.072.99,2.818,2.818,0,0,0,.288.936,1.911,1.911,0,0,0,.594.684,1.662,1.662,0,0,0,.99.27,3.924,3.924,0,0,0,2.142-.882,20.083,20.083,0,0,0,2.465-2.088,32.5,32.5,0,0,0,2.25-2.448,15.393,15.393,0,0,0,1.458-2q.109,2.808.109,5.58v1.044c0,.337-.013.672-.036,1.008A33.682,33.682,0,0,0,50.6,28.872a27.94,27.94,0,0,0-3.061,2.9,16.888,16.888,0,0,0-2.376,3.33,7.426,7.426,0,0,0-.953,3.564,6.361,6.361,0,0,0,.161,1.422,3.729,3.729,0,0,0,.523,1.242,2.873,2.873,0,0,0,.935.882,2.69,2.69,0,0,0,1.4.342,4.334,4.334,0,0,0,1.657-.324,6.868,6.868,0,0,0,1.475-.828,8.454,8.454,0,0,0,1.279-1.17,10.446,10.446,0,0,0,1.026-1.35,17.806,17.806,0,0,0,2.069-4.428,32.952,32.952,0,0,0,1.116-4.878,43.969,43.969,0,0,0,.468-5.04q.09-2.538.09-4.914v-.9c0-.408-.017-.828-.054-1.26a9.374,9.374,0,0,0-.179-1.224,1.19,1.19,0,0,0-.342-.72,1.26,1.26,0,0,0-.721-.252.936.936,0,0,0-.737.36q-.306.36-.559.648-1.3,1.656-2.538,3.33a31,31,0,0,1-2.718,3.186q-.143.144-.486.468t-.72.648a9.346,9.346,0,0,1-.738.576,1.126,1.126,0,0,1-.575.252.292.292,0,0,1-.324-.288,3.923,3.923,0,0,1-.036-.468,6.152,6.152,0,0,1,.162-1.26q.16-.756.4-1.584t.5-1.584c.181-.5.33-.912.45-1.224.121-.288.276-.642.468-1.062a2.7,2.7,0,0,0,.288-1.1,1.373,1.373,0,0,0-.468-1.044,1.543,1.543,0,0,0-1.08-.432,1.2,1.2,0,0,0-.828.288" fill="none"/>
    </clipPath>
    <linearGradient id="linear-gradient-4" x1="-3.305" y1="0.998" x2="-3.229" y2="0.998" xlink:href="#linear-gradient"/>
    <clipPath id="clip-path-6">
      <path id="Path_127" data-name="Path 127" d="M82.69,2.088a25.192,25.192,0,0,0-2.772.378,18.349,18.349,0,0,0-2.754.756,9.936,9.936,0,0,0-2.412,1.242,6.168,6.168,0,0,0-1.71,1.818,4.639,4.639,0,0,0-.648,2.466,5.851,5.851,0,0,0,.81,3.006,13.134,13.134,0,0,0,2,2.592,22.72,22.72,0,0,0,2.61,2.268q1.422,1.062,2.611,2.07a16.435,16.435,0,0,1,2,1.98,3.088,3.088,0,0,1,.809,1.98,2.318,2.318,0,0,1-.576,1.566,5.135,5.135,0,0,1-1.475,1.152,9.329,9.329,0,0,1-2.053.792q-1.15.306-2.268.5a20.543,20.543,0,0,1-2.124.27c-.671.049-1.223.072-1.656.072a6.682,6.682,0,0,1-1.764-.234,6.716,6.716,0,0,0-1.763-.234,3.2,3.2,0,0,0-.828.09c-.216.06-.325.294-.325.7a.615.615,0,0,0,.342.558,2.579,2.579,0,0,0,.792.288,7.728,7.728,0,0,0,.9.126c.3.023.522.048.666.072a17.276,17.276,0,0,0,1.909.108q1.042,0,2.376-.108a26.8,26.8,0,0,0,2.771-.378,20.129,20.129,0,0,0,2.809-.738,10.472,10.472,0,0,0,2.447-1.188A5.94,5.94,0,0,0,85.156,24.3a4.376,4.376,0,0,0,.666-2.412,5.086,5.086,0,0,0-.738-2.646,13.02,13.02,0,0,0-1.854-2.394,25.459,25.459,0,0,0-2.429-2.2q-1.315-1.044-2.431-2.088a13.752,13.752,0,0,1-1.854-2.088,3.7,3.7,0,0,1-.738-2.16,3.038,3.038,0,0,1,.63-1.854,6.689,6.689,0,0,1,1.566-1.494,9.871,9.871,0,0,1,1.98-1.062,9.545,9.545,0,0,1,1.908-.558A10.647,10.647,0,0,1,83.087,3.2c.407-.023.815-.036,1.223-.036.121,0,.276.006.468.018a4.873,4.873,0,0,1,.576.072,1.354,1.354,0,0,1,.5.2.485.485,0,0,1,.216.432,1.194,1.194,0,0,1-.378.828q-.378.4-.809.81t-.811.846a1.32,1.32,0,0,0-.378.864.841.841,0,0,0,.271.648.936.936,0,0,0,.666.252,2.58,2.58,0,0,0,.828-.162,5.679,5.679,0,0,0,.918-.414,9.941,9.941,0,0,0,.863-.54,4.873,4.873,0,0,0,.666-.54,3.418,3.418,0,0,0,.792-1.1,3.107,3.107,0,0,0,.288-1.314,1.482,1.482,0,0,0-.414-1.1,2.709,2.709,0,0,0-1.025-.63,5.727,5.727,0,0,0-1.279-.288A11.018,11.018,0,0,0,85.1,1.98q-1.042,0-2.412.108" fill="none"/>
    </clipPath>
    <linearGradient id="linear-gradient-5" x1="-3.322" y1="1.533" x2="-3.273" y2="1.533" xlink:href="#linear-gradient"/>
    <clipPath id="clip-path-7">
      <path id="Path_128" data-name="Path 128" d="M92.068,14.274a17.5,17.5,0,0,1,.414-2.862,6.311,6.311,0,0,1,1.26-.234,9.67,9.67,0,0,0,1.3-.2,12.252,12.252,0,0,1-.54,1.494q-.36.846-.81,1.728t-.936,1.674a14.113,14.113,0,0,1-.882,1.3q.108-1.439.2-2.9m1.044-6.606a26.884,26.884,0,0,1,.846-2.574,13.78,13.78,0,0,1,1.116-2.3q.614-.99,1.224-.99a.232.232,0,0,1,.216.144,1.285,1.285,0,0,1,.108.324,1.839,1.839,0,0,1,.036.36V2.88a18.753,18.753,0,0,1-.288,3.132,22.991,22.991,0,0,1-.72,3.06,8.519,8.519,0,0,1-1.476.234q-.756.054-1.476.162a16.117,16.117,0,0,1,.414-1.8M96.37,0a3.023,3.023,0,0,0-2.286,1.152,12.37,12.37,0,0,0-1.818,2.754,24.9,24.9,0,0,0-1.332,3.24q-.54,1.64-.828,2.61a4.61,4.61,0,0,0-1.206.252.893.893,0,0,0-.63.936.764.764,0,0,0,.864.864,2.607,2.607,0,0,0,.756-.108,26.441,26.441,0,0,0-.486,3.51q-.126,1.782-.126,3.546,0,.684.072,1.71t.252,2.178a19.742,19.742,0,0,0,.5,2.3,10.454,10.454,0,0,0,.81,2.07A4.786,4.786,0,0,0,92.1,28.512a2.51,2.51,0,0,0,1.638.576,4.112,4.112,0,0,0,2.2-.7,12.18,12.18,0,0,0,2.124-1.71A18.145,18.145,0,0,0,99.9,24.534a23.911,23.911,0,0,0,1.332-2c.144-.239.276-.48.4-.72a1.663,1.663,0,0,0,.18-.756.551.551,0,0,0-.144-.378.46.46,0,0,0-.36-.162.724.724,0,0,0-.541.288,3.547,3.547,0,0,0-.4.54q-.4.648-1.063,1.6a16.171,16.171,0,0,1-1.475,1.818,11.342,11.342,0,0,1-1.693,1.494,2.952,2.952,0,0,1-1.709.63,1.334,1.334,0,0,1-1.17-.864,7.635,7.635,0,0,1-.684-2.016,19.048,19.048,0,0,1-.324-2.286c-.059-.756-.09-1.314-.09-1.674v-.4a.9.9,0,0,1,.072-.4,1.475,1.475,0,0,1,.234-.378q.162-.2.306-.378c.168-.239.337-.473.5-.7a6.356,6.356,0,0,0,.468-.738q.9-1.476,1.727-3.15a17.322,17.322,0,0,0,1.261-3.33c.144-.023.36-.072.648-.144s.588-.149.9-.234.6-.167.864-.252a4.2,4.2,0,0,0,.54-.2,2.145,2.145,0,0,0,.342-.27.564.564,0,0,0,.126-.414c0-.311-.167-.468-.5-.468a7.031,7.031,0,0,0-1.224.108c-.408.072-.815.132-1.224.18a19.769,19.769,0,0,0,.594-2.808,20.849,20.849,0,0,0,.2-2.844c0-.264-.012-.581-.036-.954a4.387,4.387,0,0,0-.2-1.062A2.345,2.345,0,0,0,97.27.36,1.154,1.154,0,0,0,96.37,0Z" fill="none"/>
    </clipPath>
    <linearGradient id="linear-gradient-6" x1="-6.521" y1="1.464" x2="-6.447" y2="1.464" xlink:href="#linear-gradient"/>
    <clipPath id="clip-path-8">
      <path id="Path_129" data-name="Path 129" d="M103.966,26.262a2.1,2.1,0,0,1-.558-.738,3.388,3.388,0,0,1-.269-.954,6.871,6.871,0,0,1-.073-.954,9.836,9.836,0,0,1,.27-2.052,12.054,12.054,0,0,1,.792-2.376,7.292,7.292,0,0,1,1.3-1.98,2.378,2.378,0,0,1,1.782-.828,1.3,1.3,0,0,1,.936.342,2.573,2.573,0,0,1,.576.828,3.752,3.752,0,0,1,.288,1.062,8.257,8.257,0,0,1,.072,1.008,10.488,10.488,0,0,1-.144,1.71,9.174,9.174,0,0,1-.45,1.71,7.626,7.626,0,0,1-.792,1.566,5.4,5.4,0,0,1-1.17,1.278,3.9,3.9,0,0,1-.774.486,2.018,2.018,0,0,1-.882.2,1.341,1.341,0,0,1-.9-.306m.377-11.268a9.023,9.023,0,0,0-2.105,2.43,12.224,12.224,0,0,0-1.314,3.1,11.618,11.618,0,0,0-.45,3.024,8.192,8.192,0,0,0,.18,1.656,5.189,5.189,0,0,0,.576,1.548,3.425,3.425,0,0,0,1.062,1.134,2.86,2.86,0,0,0,1.639.45,4.17,4.17,0,0,0,1.475-.27,6.763,6.763,0,0,0,3.1-2.322,9.934,9.934,0,0,0,1.188-2.088,10.965,10.965,0,0,0,.684-2.322,13.557,13.557,0,0,0,.216-2.394,9.087,9.087,0,0,0-.163-1.692,5.618,5.618,0,0,0-.538-1.584,3.407,3.407,0,0,0-1.027-1.188A2.764,2.764,0,0,0,107.206,14a4.466,4.466,0,0,0-2.863.99" fill="none"/>
    </clipPath>
    <linearGradient id="linear-gradient-7" x1="-9.932" y1="1.993" x2="-9.833" y2="1.993" xlink:href="#linear-gradient"/>
    <clipPath id="clip-path-9">
      <path id="Path_130" data-name="Path 130" d="M115.936,12.6a2.207,2.207,0,0,0-.774,1.188q-.18.829-.324,1.692t-.324,1.692q-.54,2.592-1.1,5.4a28.045,28.045,0,0,0-.558,5.472,1.109,1.109,0,0,0,.18.63.642.642,0,0,0,.576.27,1.239,1.239,0,0,0,.882-.36,2.856,2.856,0,0,0,.594-.792q.612-1.368,1.26-2.682a28.766,28.766,0,0,1,1.44-2.574q.649-1.044,1.44-2.2a12.953,12.953,0,0,1,1.692-2.016c.1-.095.229-.216.4-.36a.726.726,0,0,1,.432-.216q.216,0,.27.288a2.6,2.6,0,0,1,.054.432q0,1.046-.072,2.052t-.071,2.052q0,.684.053,1.512a5.375,5.375,0,0,0,.324,1.548,3.1,3.1,0,0,0,.792,1.206,2.059,2.059,0,0,0,1.458.486,3.969,3.969,0,0,0,2.07-.648,11.2,11.2,0,0,0,2.016-1.584,13.883,13.883,0,0,0,1.692-2,13.969,13.969,0,0,0,1.135-1.89c.048-.1.1-.216.161-.36a.984.984,0,0,0,.091-.36A.848.848,0,0,0,131.56,20a.517.517,0,0,0-.45-.234.635.635,0,0,0-.54.324c-.144.216-.264.409-.36.576a14.762,14.762,0,0,1-.828,1.4,13.628,13.628,0,0,1-1.224,1.6A9.719,9.719,0,0,1,126.736,25a2.415,2.415,0,0,1-1.458.558.948.948,0,0,1-.666-.216,1.264,1.264,0,0,1-.342-.54,2.6,2.6,0,0,1-.126-.7q-.018-.378-.018-.7,0-1.26.072-2.52t.072-2.52q0-.4-.036-.972a5.528,5.528,0,0,0-.2-1.152,2.644,2.644,0,0,0-.486-.972,1.06,1.06,0,0,0-.864-.4,2.657,2.657,0,0,0-1.6.792,17.763,17.763,0,0,0-1.818,1.836q-.9,1.046-1.674,2.124t-1.17,1.656q.144-1.044.36-2.088a12.566,12.566,0,0,1,.612-2.052q.324-.864.63-1.89a6.857,6.857,0,0,0,.306-1.962,1.523,1.523,0,0,0-.233-.9.981.981,0,0,0-.847-.324,2,2,0,0,0-1.314.54" fill="none"/>
    </clipPath>
    <linearGradient id="linear-gradient-8" x1="-5.982" y1="1.806" x2="-5.929" y2="1.806" xlink:href="#linear-gradient"/>
    <clipPath id="clip-path-10">
      <path id="Path_131" data-name="Path 131" d="M132.838,19.414a17.833,17.833,0,0,1,.792-2.065,11.626,11.626,0,0,1,1.007-1.811c.361-.518.72-.778,1.081-.778a.486.486,0,0,1,.486.272,1.333,1.333,0,0,1,.126.561,3.312,3.312,0,0,1-.4,1.5,9.8,9.8,0,0,1-2.232,2.861,10.264,10.264,0,0,1-1.26.959,11.548,11.548,0,0,1,.4-1.5m.414-5.194a10.406,10.406,0,0,0-2.071,2.718,15.569,15.569,0,0,0-1.332,3.33,11.6,11.6,0,0,0-.467,2.952,7.821,7.821,0,0,0,.215,1.854,4.326,4.326,0,0,0,.7,1.548,3.71,3.71,0,0,0,1.242,1.08,3.783,3.783,0,0,0,1.836.414,8.335,8.335,0,0,0,2.843-.493,10.7,10.7,0,0,0,2.556-1.332,12.727,12.727,0,0,0,2.179-1.955A13.329,13.329,0,0,0,142.63,22a2.556,2.556,0,0,0,.252-.5,1.873,1.873,0,0,0,.072-.576.333.333,0,0,0-.162-.288.612.612,0,0,0-.343-.108.785.785,0,0,0-.647.324,7.386,7.386,0,0,0-.433.612,16.02,16.02,0,0,1-1.26,1.8,10.532,10.532,0,0,1-1.584,1.6,8.341,8.341,0,0,1-1.872,1.152,5.219,5.219,0,0,1-2.16.45,2.128,2.128,0,0,1-1.8-.7,3.107,3.107,0,0,1-.54-1.931,7.151,7.151,0,0,1,.181-1.516,6.133,6.133,0,0,0,1.8-1.083,12.994,12.994,0,0,0,1.817-1.823,11.573,11.573,0,0,0,1.4-2.129,4.488,4.488,0,0,0,.559-2.005,2.305,2.305,0,0,0-.523-1.551A1.852,1.852,0,0,0,135.9,13.1a3.823,3.823,0,0,0-2.645,1.116" fill="none"/>
    </clipPath>
    <linearGradient id="linear-gradient-9" x1="-9.533" y1="1.962" x2="-9.459" y2="1.962" xlink:href="#linear-gradient"/>
  </defs>
  <g id="KatyStone" transform="translate(0 0)">
    <g id="Group_180" data-name="Group 180">
      <g id="Group_179" data-name="Group 179" clip-path="url(#clip-path)">
        <path id="Path_114" data-name="Path 114" d="M5.292,1.944a3.659,3.659,0,0,1,1.26.2q.54.2.54,1.062a4.047,4.047,0,0,1-.144.936c-.1.384-.211.786-.342,1.206s-.264.834-.4,1.242S5.976,7.332,5.9,7.6q-.684,2.484-1.17,5T4,17.712L14.544,4.14a1.261,1.261,0,0,1,1.62-.4.489.489,0,0,1,.288.468,2.988,2.988,0,0,1-.486,1.206q-.486.846-1.242,1.962T13.032,9.72q-.937,1.224-1.782,2.322T9.72,14q-.684.864-.972,1.224Q7.884,16.344,7,17.46t-1.71,2.268A22.326,22.326,0,0,0,9.126,22.05a30.65,30.65,0,0,0,4.158,1.638q.25.072.486.144a2.893,2.893,0,0,0,.522.108,1.856,1.856,0,0,0,.432.036,3.935,3.935,0,0,1,.648.054,1.8,1.8,0,0,1,.558.18.382.382,0,0,1,.234.342,1.769,1.769,0,0,1-.522,1.332,1.863,1.863,0,0,1-1.35.5,7.869,7.869,0,0,1-2.268-.54q-1.548-.54-3.258-1.278t-3.2-1.494a14.714,14.714,0,0,1-2.106-1.224q-.108.432-.234,1.188t-.2,1.584q-.072.828-.126,1.6t-.054,1.206c0,.312.011.606.036.882a2.617,2.617,0,0,1-.036.756,1.481,1.481,0,0,1-.306.63,2.17,2.17,0,0,1-.774.54,2.151,2.151,0,0,1-.828.18.736.736,0,0,1-.756-.414A2.188,2.188,0,0,1,0,29.124,99.6,99.6,0,0,1,.684,17.406,80.061,80.061,0,0,1,2.916,5.9q.072-.324.234-.9t.36-1.17a8.377,8.377,0,0,1,.45-1.1,1.381,1.381,0,0,1,.54-.648.905.905,0,0,1,.4-.126q.216-.018.4-.018"/>
        <path id="Path_115" data-name="Path 115" d="M33.57,22.572q-.306.432-.486.72-.5.684-1.224,1.584a16.055,16.055,0,0,1-1.566,1.692,9.428,9.428,0,0,1-1.8,1.332,3.814,3.814,0,0,1-1.89.54,1.8,1.8,0,0,1-1.44-.63,4.383,4.383,0,0,1-.828-1.512,7.728,7.728,0,0,1-.36-1.836,12.411,12.411,0,0,1-.036-1.6q-.36.54-.918,1.35a15.251,15.251,0,0,1-1.242,1.566,9.508,9.508,0,0,1-1.422,1.3,2.469,2.469,0,0,1-1.458.54,1.531,1.531,0,0,1-1.08-.4,2.639,2.639,0,0,1-.666-.972,5.046,5.046,0,0,1-.324-1.224,8.477,8.477,0,0,1-.09-1.152,9.146,9.146,0,0,1,.684-3.2,15.259,15.259,0,0,1,1.818-3.4,11.766,11.766,0,0,1,2.592-2.682,5.041,5.041,0,0,1,3.042-1.08,1.19,1.19,0,0,1,.792.36,1.033,1.033,0,0,1,.4.756.33.33,0,0,1-.108.27,1.314,1.314,0,0,1-.252.162q-.972.576-1.854,1.206a11.918,11.918,0,0,0-1.675,1.458,11.611,11.611,0,0,0-2.231,3.222,8.972,8.972,0,0,0-.828,3.834,2.512,2.512,0,0,0,.072.54.37.37,0,0,0,.4.324,1.409,1.409,0,0,0,.9-.486,9.48,9.48,0,0,0,1.044-1.224,17.22,17.22,0,0,0,1.062-1.656q.521-.918.99-1.782t.81-1.6q.342-.738.522-1.1a3.6,3.6,0,0,1,.45-.738.93.93,0,0,1,.774-.342,1.489,1.489,0,0,1,.558.108.45.45,0,0,1,.27.468,3.06,3.06,0,0,1-.252,1.044q-.252.648-.4,1.044a11.319,11.319,0,0,0-.414,2,16.791,16.791,0,0,0-.126,2q0,.288.018.864a7.772,7.772,0,0,0,.126,1.17,3.649,3.649,0,0,0,.342,1.044.727.727,0,0,0,.666.45,2.529,2.529,0,0,0,1.44-.576,12.2,12.2,0,0,0,1.548-1.35,19.273,19.273,0,0,0,1.4-1.6q.648-.828.972-1.332c.12-.191.252-.39.4-.594a.707.707,0,0,1,.611-.306c.384,0,.577.229.577.684a1.383,1.383,0,0,1-.306.756"/>
        <path id="Path_116" data-name="Path 116" d="M38.916,13.914q-.83,1.674-1.728,3.15a6.734,6.734,0,0,1-.469.738c-.168.228-.337.462-.5.7q-.144.18-.305.378a1.454,1.454,0,0,0-.235.378.885.885,0,0,0-.071.4v.4c0,.36.029.918.09,1.674a18.649,18.649,0,0,0,.323,2.286,7.684,7.684,0,0,0,.684,2.016,1.332,1.332,0,0,0,1.17.864,2.957,2.957,0,0,0,1.71-.63,11.493,11.493,0,0,0,1.692-1.494,16.291,16.291,0,0,0,1.476-1.818c.445-.636.8-1.17,1.063-1.6a3.376,3.376,0,0,1,.394-.54.724.724,0,0,1,.541-.288.462.462,0,0,1,.36.162.551.551,0,0,1,.144.378,1.669,1.669,0,0,1-.18.756q-.18.36-.4.72a23.907,23.907,0,0,1-1.332,2,18.321,18.321,0,0,1-1.836,2.142,12.255,12.255,0,0,1-2.124,1.71,4.111,4.111,0,0,1-2.195.7,2.511,2.511,0,0,1-1.639-.576,4.812,4.812,0,0,1-1.188-1.494,10.479,10.479,0,0,1-.81-2.07,19.578,19.578,0,0,1-.5-2.3q-.183-1.152-.253-2.178t-.072-1.71q0-1.763.126-3.546a26.441,26.441,0,0,1,.486-3.51,2.612,2.612,0,0,1-.756.108.764.764,0,0,1-.864-.864.892.892,0,0,1,.631-.936,4.587,4.587,0,0,1,1.2-.252q.288-.972.828-2.61a24.894,24.894,0,0,1,1.332-3.24,12.324,12.324,0,0,1,1.818-2.754A3.021,3.021,0,0,1,39.815,0a1.15,1.15,0,0,1,.9.36,2.345,2.345,0,0,1,.486.864,4.387,4.387,0,0,1,.2,1.062q.036.558.036.954a20.86,20.86,0,0,1-.2,2.844,19.769,19.769,0,0,1-.594,2.808c.408-.048.815-.108,1.225-.18A7.011,7.011,0,0,1,43.091,8.6c.336,0,.505.156.505.468a.57.57,0,0,1-.127.414,2.317,2.317,0,0,1-.342.27,4.367,4.367,0,0,1-.54.2q-.4.126-.864.252t-.9.234c-.288.072-.5.121-.648.144a17.444,17.444,0,0,1-1.259,3.33m-3.4.36q-.092,1.458-.2,2.9a13.721,13.721,0,0,0,.882-1.3q.486-.792.936-1.674t.811-1.728a12.461,12.461,0,0,0,.539-1.494,9.681,9.681,0,0,1-1.3.2,6.294,6.294,0,0,0-1.261.234,17.392,17.392,0,0,0-.413,2.862M38.52,2.79a13.665,13.665,0,0,0-1.117,2.3,26.793,26.793,0,0,0-.846,2.574,16.065,16.065,0,0,0-.414,1.8q.72-.108,1.476-.162A8.6,8.6,0,0,0,39.1,9.072a23.028,23.028,0,0,0,.72-3.06A18.76,18.76,0,0,0,40.1,2.88V2.628a1.912,1.912,0,0,0-.037-.36,1.326,1.326,0,0,0-.108-.324.232.232,0,0,0-.216-.144q-.614,0-1.223.99"/>
        <path id="Path_117" data-name="Path 117" d="M45.828,42.21a2.857,2.857,0,0,1-.936-.882,3.728,3.728,0,0,1-.522-1.242,6.3,6.3,0,0,1-.162-1.422,7.419,7.419,0,0,1,.954-3.564,16.847,16.847,0,0,1,2.376-3.33,27.84,27.84,0,0,1,3.06-2.9A33.823,33.823,0,0,1,53.64,26.64q.036-.5.036-1.008V24.588q0-2.772-.108-5.58a15.49,15.49,0,0,1-1.458,2,32.715,32.715,0,0,1-2.25,2.448,20.253,20.253,0,0,1-2.466,2.088,3.926,3.926,0,0,1-2.142.882,1.664,1.664,0,0,1-.99-.27,1.92,1.92,0,0,1-.594-.684,2.849,2.849,0,0,1-.288-.936,7.091,7.091,0,0,1-.072-.99,14.686,14.686,0,0,1,.378-3.276q.378-1.654.882-3.2c.072-.24.137-.474.2-.7a2.831,2.831,0,0,1,.27-.666,2.376,2.376,0,0,1,.54-.72,1.2,1.2,0,0,1,.828-.288,1.547,1.547,0,0,1,1.08.432,1.373,1.373,0,0,1,.468,1.044,2.7,2.7,0,0,1-.289,1.1q-.288.63-.467,1.062-.18.468-.45,1.224t-.5,1.584q-.236.828-.4,1.584a6.223,6.223,0,0,0-.162,1.26,3.938,3.938,0,0,0,.036.468.293.293,0,0,0,.324.288,1.129,1.129,0,0,0,.576-.252,9.346,9.346,0,0,0,.738-.576q.378-.324.72-.648t.486-.468A31.129,31.129,0,0,0,51.282,19.6q1.242-1.674,2.538-3.33.252-.288.558-.648a.935.935,0,0,1,.738-.36,1.25,1.25,0,0,1,.72.252,1.179,1.179,0,0,1,.342.72,9.371,9.371,0,0,1,.18,1.224q.054.648.054,1.26v.9q0,2.376-.09,4.914a44.2,44.2,0,0,1-.468,5.04,33.078,33.078,0,0,1-1.116,4.878,17.809,17.809,0,0,1-2.07,4.428,10.289,10.289,0,0,1-1.026,1.35,8.349,8.349,0,0,1-1.278,1.17,6.875,6.875,0,0,1-1.476.828,4.332,4.332,0,0,1-1.656.324,2.7,2.7,0,0,1-1.4-.342m5.148-11.934a23.2,23.2,0,0,0-2.484,2.5,14.73,14.73,0,0,0-1.926,2.862,6.709,6.709,0,0,0-.774,3.1,5.772,5.772,0,0,0,.054.738,2.514,2.514,0,0,0,.216.756,1.733,1.733,0,0,0,.432.576,1.033,1.033,0,0,0,.7.234,1.809,1.809,0,0,0,.846-.216,4.24,4.24,0,0,0,.792-.54,6.463,6.463,0,0,0,.7-.7q.324-.378.576-.7a10.022,10.022,0,0,0,1.278-2.286,25.429,25.429,0,0,0,.972-2.826q.413-1.476.7-2.934a26.144,26.144,0,0,0,.4-2.646q-1.152.936-2.484,2.088"/>
        <path id="Path_118" data-name="Path 118" d="M84.076,6.372q.378-.432.811-.846t.809-.81a1.194,1.194,0,0,0,.378-.828.485.485,0,0,0-.216-.432,1.338,1.338,0,0,0-.5-.2,4.7,4.7,0,0,0-.576-.072q-.288-.018-.468-.018-.612,0-1.223.036a10.621,10.621,0,0,0-1.225.144,9.461,9.461,0,0,0-1.908.558,9.844,9.844,0,0,0-1.98,1.062,6.63,6.63,0,0,0-1.566,1.494,3.036,3.036,0,0,0-.63,1.854,3.7,3.7,0,0,0,.738,2.16,13.8,13.8,0,0,0,1.854,2.088q1.116,1.044,2.431,2.088a25.325,25.325,0,0,1,2.429,2.2,13.03,13.03,0,0,1,1.854,2.394,5.1,5.1,0,0,1,.738,2.646,4.387,4.387,0,0,1-.666,2.412,5.951,5.951,0,0,1-1.746,1.764,10.552,10.552,0,0,1-2.447,1.188,20.166,20.166,0,0,1-2.809.738,26.842,26.842,0,0,1-2.771.378q-1.333.108-2.376.108a17.276,17.276,0,0,1-1.909-.108c-.144-.024-.366-.049-.666-.072a7.949,7.949,0,0,1-.9-.126,2.579,2.579,0,0,1-.792-.288.616.616,0,0,1-.342-.558c0-.408.109-.642.324-.7a3.168,3.168,0,0,1,.829-.09,6.716,6.716,0,0,1,1.763.234A6.718,6.718,0,0,0,73.078,27c.433,0,.984-.024,1.656-.072a20.578,20.578,0,0,0,2.124-.27q1.116-.2,2.268-.5a9.4,9.4,0,0,0,2.053-.792,5.181,5.181,0,0,0,1.475-1.152,2.318,2.318,0,0,0,.576-1.566,3.086,3.086,0,0,0-.809-1.98,16.435,16.435,0,0,0-2-1.98q-1.188-1.008-2.611-2.07a22.831,22.831,0,0,1-2.61-2.268,13.134,13.134,0,0,1-2-2.592,5.854,5.854,0,0,1-.81-3.006,4.639,4.639,0,0,1,.648-2.466,6.156,6.156,0,0,1,1.71-1.818,9.936,9.936,0,0,1,2.412-1.242,18.349,18.349,0,0,1,2.754-.756,25.159,25.159,0,0,1,2.772-.378Q84.058,1.98,85.1,1.98a11.049,11.049,0,0,1,1.17.072,5.684,5.684,0,0,1,1.279.288,2.7,2.7,0,0,1,1.025.63,1.484,1.484,0,0,1,.414,1.1A3.126,3.126,0,0,1,88.7,5.382a3.429,3.429,0,0,1-.792,1.1,4.936,4.936,0,0,1-.666.54q-.414.288-.863.54a5.758,5.758,0,0,1-.918.414,2.585,2.585,0,0,1-.828.162.936.936,0,0,1-.666-.252.844.844,0,0,1-.271-.648,1.32,1.32,0,0,1,.378-.864"/>
        <path id="Path_119" data-name="Path 119" d="M95.47,13.914q-.828,1.674-1.728,3.15a6.582,6.582,0,0,1-.468.738c-.168.228-.337.462-.5.7q-.144.18-.306.378a1.475,1.475,0,0,0-.234.378.884.884,0,0,0-.072.4v.4q0,.54.09,1.674a18.848,18.848,0,0,0,.324,2.286,7.612,7.612,0,0,0,.684,2.016,1.332,1.332,0,0,0,1.17.864,2.959,2.959,0,0,0,1.71-.63,11.493,11.493,0,0,0,1.692-1.494A16.282,16.282,0,0,0,99.3,22.95q.667-.954,1.063-1.6a3.451,3.451,0,0,1,.4-.54.721.721,0,0,1,.541-.288.462.462,0,0,1,.36.162.551.551,0,0,1,.144.378,1.669,1.669,0,0,1-.18.756q-.18.36-.4.72-.506.864-1.332,2a18.417,18.417,0,0,1-1.836,2.142,12.254,12.254,0,0,1-2.124,1.71,4.112,4.112,0,0,1-2.2.7,2.51,2.51,0,0,1-1.638-.576,4.812,4.812,0,0,1-1.188-1.494,10.479,10.479,0,0,1-.81-2.07,19.584,19.584,0,0,1-.5-2.3q-.181-1.152-.252-2.178t-.072-1.71q0-1.763.126-3.546a26.277,26.277,0,0,1,.486-3.51,2.617,2.617,0,0,1-.756.108.764.764,0,0,1-.864-.864.892.892,0,0,1,.63-.936,4.594,4.594,0,0,1,1.206-.252q.288-.972.828-2.61a24.9,24.9,0,0,1,1.332-3.24,12.324,12.324,0,0,1,1.818-2.754A3.021,3.021,0,0,1,96.37,0a1.15,1.15,0,0,1,.9.36,2.345,2.345,0,0,1,.486.864,4.436,4.436,0,0,1,.2,1.062c.023.372.036.69.036.954a20.86,20.86,0,0,1-.2,2.844A19.769,19.769,0,0,1,97.2,8.892c.408-.048.815-.108,1.224-.18A7.031,7.031,0,0,1,99.646,8.6q.5,0,.5.468a.57.57,0,0,1-.126.414,2.317,2.317,0,0,1-.342.27,4.367,4.367,0,0,1-.54.2q-.4.126-.864.252t-.9.234c-.288.072-.5.121-.648.144a17.45,17.45,0,0,1-1.26,3.33m-3.4.36q-.09,1.458-.2,2.9a13.914,13.914,0,0,0,.882-1.3q.486-.792.936-1.674t.81-1.728a12.312,12.312,0,0,0,.54-1.494,9.67,9.67,0,0,1-1.3.2,6.3,6.3,0,0,0-1.26.234,17.5,17.5,0,0,0-.414,2.862M95.074,2.79a13.742,13.742,0,0,0-1.116,2.3,26.792,26.792,0,0,0-.846,2.574,16.067,16.067,0,0,0-.414,1.8q.72-.108,1.476-.162a8.6,8.6,0,0,0,1.476-.234,23.028,23.028,0,0,0,.72-3.06,18.859,18.859,0,0,0,.288-3.132V2.628a1.911,1.911,0,0,0-.036-.36,1.37,1.37,0,0,0-.108-.324A.232.232,0,0,0,96.3,1.8q-.613,0-1.224.99"/>
        <path id="Path_120" data-name="Path 120" d="M100.924,20.52a12.208,12.208,0,0,1,1.314-3.1,9.014,9.014,0,0,1,2.106-2.43,4.462,4.462,0,0,1,2.862-.99,2.757,2.757,0,0,1,1.656.468,3.4,3.4,0,0,1,1.027,1.188,5.609,5.609,0,0,1,.539,1.584,9.17,9.17,0,0,1,.162,1.692,13.463,13.463,0,0,1-.216,2.394,11,11,0,0,1-.683,2.322A9.982,9.982,0,0,1,108.5,25.74a6.833,6.833,0,0,1-1.764,1.656,6.906,6.906,0,0,1-1.332.666,4.166,4.166,0,0,1-1.475.27,2.86,2.86,0,0,1-1.639-.45,3.412,3.412,0,0,1-1.061-1.134,5.174,5.174,0,0,1-.577-1.548,8.117,8.117,0,0,1-.179-1.656,11.613,11.613,0,0,1,.449-3.024m4.5-3.312a7.254,7.254,0,0,0-1.3,1.98,12.12,12.12,0,0,0-.792,2.376,9.825,9.825,0,0,0-.269,2.052,6.871,6.871,0,0,0,.072.954,3.388,3.388,0,0,0,.269.954,2.111,2.111,0,0,0,.558.738,1.341,1.341,0,0,0,.9.306,2.018,2.018,0,0,0,.882-.2,4.031,4.031,0,0,0,.775-.486,5.444,5.444,0,0,0,1.17-1.278,7.728,7.728,0,0,0,.792-1.566,9.353,9.353,0,0,0,.45-1.71,10.72,10.72,0,0,0,.143-1.71,8.257,8.257,0,0,0-.072-1.008,3.752,3.752,0,0,0-.288-1.062,2.575,2.575,0,0,0-.575-.828,1.306,1.306,0,0,0-.937-.342,2.378,2.378,0,0,0-1.782.828"/>
        <path id="Path_121" data-name="Path 121" d="M113.038,28.674a1.109,1.109,0,0,1-.18-.63,28.045,28.045,0,0,1,.558-5.472q.558-2.808,1.1-5.4.179-.828.323-1.692t.324-1.692a2.207,2.207,0,0,1,.774-1.188,2,2,0,0,1,1.314-.54.982.982,0,0,1,.847.324,1.523,1.523,0,0,1,.233.9,6.9,6.9,0,0,1-.306,1.962q-.306,1.026-.63,1.89a12.566,12.566,0,0,0-.612,2.052c-.143.7-.265,1.392-.36,2.088q.4-.576,1.17-1.656t1.675-2.124a17.559,17.559,0,0,1,1.817-1.836,2.649,2.649,0,0,1,1.6-.792,1.06,1.06,0,0,1,.864.4,2.621,2.621,0,0,1,.486.972,5.528,5.528,0,0,1,.2,1.152q.036.576.036.972,0,1.26-.072,2.52t-.072,2.52q0,.324.018.7a2.6,2.6,0,0,0,.126.7,1.264,1.264,0,0,0,.342.54.946.946,0,0,0,.666.216A2.415,2.415,0,0,0,126.736,25a9.715,9.715,0,0,0,1.422-1.332,13.823,13.823,0,0,0,1.224-1.6,14.853,14.853,0,0,0,.828-1.4q.144-.252.36-.576a.635.635,0,0,1,.54-.324.517.517,0,0,1,.45.234.846.846,0,0,1,.163.486,1,1,0,0,1-.091.36c-.06.144-.114.265-.161.36a14.031,14.031,0,0,1-1.135,1.89,13.948,13.948,0,0,1-1.692,2,11.243,11.243,0,0,1-2.016,1.584,3.971,3.971,0,0,1-2.069.648,2.054,2.054,0,0,1-1.458-.486,3.089,3.089,0,0,1-.792-1.206,5.342,5.342,0,0,1-.325-1.548q-.054-.828-.053-1.512,0-1.044.071-2.052t.072-2.052a2.5,2.5,0,0,0-.054-.432q-.054-.288-.27-.288a.726.726,0,0,0-.432.216c-.168.144-.3.265-.4.36a12.953,12.953,0,0,0-1.692,2.016q-.792,1.153-1.44,2.2a28.646,28.646,0,0,0-1.439,2.574q-.649,1.314-1.261,2.682a2.856,2.856,0,0,1-.594.792,1.239,1.239,0,0,1-.882.36.642.642,0,0,1-.576-.27"/>
        <path id="Path_122" data-name="Path 122" d="M131.542,27.7a3.724,3.724,0,0,1-1.242-1.081,4.334,4.334,0,0,1-.7-1.548,7.757,7.757,0,0,1-.216-1.854,11.557,11.557,0,0,1,.468-2.952,15.537,15.537,0,0,1,1.332-3.33,10.4,10.4,0,0,1,2.07-2.718A3.824,3.824,0,0,1,135.9,13.1a1.855,1.855,0,0,1,1.494.614,2.311,2.311,0,0,1,.522,1.552,4.5,4.5,0,0,1-.558,2,11.563,11.563,0,0,1-1.4,2.129,12.941,12.941,0,0,1-1.817,1.823,6.12,6.12,0,0,1-1.8,1.083,7.145,7.145,0,0,0-.18,1.516,3.1,3.1,0,0,0,.54,1.932,2.129,2.129,0,0,0,1.8.7,5.223,5.223,0,0,0,2.161-.45,8.328,8.328,0,0,0,1.872-1.152,10.533,10.533,0,0,0,1.584-1.6,16.048,16.048,0,0,0,1.259-1.8c.121-.191.265-.4.433-.612a.785.785,0,0,1,.648-.324.614.614,0,0,1,.342.108.331.331,0,0,1,.162.288,1.876,1.876,0,0,1-.072.577,2.584,2.584,0,0,1-.252.5,13.307,13.307,0,0,1-1.674,2.339,12.679,12.679,0,0,1-2.178,1.955,10.723,10.723,0,0,1-2.556,1.332,8.317,8.317,0,0,1-2.844.493,3.785,3.785,0,0,1-1.836-.413m3.1-12.164a11.535,11.535,0,0,0-1.008,1.811,18.189,18.189,0,0,0-.792,2.064,11.542,11.542,0,0,0-.4,1.5,10.236,10.236,0,0,0,1.259-.959,9.513,9.513,0,0,0,1.261-1.34,9.614,9.614,0,0,0,.972-1.521,3.31,3.31,0,0,0,.4-1.5,1.333,1.333,0,0,0-.126-.561.486.486,0,0,0-.486-.272q-.54,0-1.08.779"/>
      </g>
    </g>
    <g id="Group_182" data-name="Group 182">
      <g id="Group_181" data-name="Group 181" clip-path="url(#clip-path-2)">
        <rect id="Rectangle_104" data-name="Rectangle 104" width="16.452" height="28.476" transform="translate(0 1.944)" fill="url(#linear-gradient)"/>
      </g>
    </g>
    <g id="Group_184" data-name="Group 184">
      <g id="Group_183" data-name="Group 183" clip-path="url(#clip-path-3)">
        <rect id="Rectangle_105" data-name="Rectangle 105" width="17.136" height="14.94" transform="translate(16.74 13.5)" fill="url(#linear-gradient-2)"/>
      </g>
    </g>
    <g id="Group_186" data-name="Group 186">
      <g id="Group_185" data-name="Group 185" clip-path="url(#clip-path-4)">
        <rect id="Rectangle_106" data-name="Rectangle 106" width="13.536" height="29.088" transform="translate(31.716 0)" fill="url(#linear-gradient-3)"/>
      </g>
    </g>
    <g id="Group_188" data-name="Group 188">
      <g id="Group_187" data-name="Group 187" clip-path="url(#clip-path-5)">
        <rect id="Rectangle_107" data-name="Rectangle 107" width="13.103" height="27.864" transform="translate(43.308 14.688)" fill="url(#linear-gradient-4)"/>
      </g>
    </g>
    <g id="Group_190" data-name="Group 190">
      <g id="Group_189" data-name="Group 189" clip-path="url(#clip-path-6)">
        <rect id="Rectangle_108" data-name="Rectangle 108" width="20.592" height="26.496" transform="translate(68.398 1.98)" fill="url(#linear-gradient-5)"/>
      </g>
    </g>
    <g id="Group_192" data-name="Group 192">
      <g id="Group_191" data-name="Group 191" clip-path="url(#clip-path-7)">
        <rect id="Rectangle_109" data-name="Rectangle 109" width="13.536" height="29.088" transform="translate(88.27 0)" fill="url(#linear-gradient-6)"/>
      </g>
    </g>
    <g id="Group_194" data-name="Group 194">
      <g id="Group_193" data-name="Group 193" clip-path="url(#clip-path-8)">
        <rect id="Rectangle_110" data-name="Rectangle 110" width="10.116" height="14.328" transform="translate(100.474 14.004)" fill="url(#linear-gradient-7)"/>
      </g>
    </g>
    <g id="Group_196" data-name="Group 196">
      <g id="Group_195" data-name="Group 195" clip-path="url(#clip-path-9)">
        <rect id="Rectangle_111" data-name="Rectangle 111" width="18.865" height="16.884" transform="translate(112.858 12.06)" fill="url(#linear-gradient-8)"/>
      </g>
    </g>
    <g id="Group_198" data-name="Group 198">
      <g id="Group_197" data-name="Group 197" clip-path="url(#clip-path-10)">
        <rect id="Rectangle_112" data-name="Rectangle 112" width="13.572" height="15.012" transform="translate(129.382 13.104)" fill="url(#linear-gradient-9)"/>
      </g>
    </g>
  </g>
</svg>
