<svg xmlns="http://www.w3.org/2000/svg" width="41" height="54.667" viewBox="0 0 41 54.667">
  <g id="location_icon" data-name="location icon" transform="translate(-64)">
    <g id="Group_157" data-name="Group 157" transform="translate(64)">
      <g id="Group_156" data-name="Group 156" transform="translate(0)">
        <path id="Path_94" data-name="Path 94" d="M262.833,245.333a6.833,6.833,0,1,0,6.833,6.833A6.841,6.841,0,0,0,262.833,245.333Zm0,11.389a4.556,4.556,0,1,1,4.556-4.556A4.561,4.561,0,0,1,262.833,256.722Z" transform="translate(-235.5 -219.139)" fill="#62909a"/>
        <path id="Path_95" data-name="Path 95" d="M101.583,22.778H99.846a17.873,17.873,0,0,0,.6-4.556,18.222,18.222,0,1,0-34.257,8.66l15.038,27.2a1.139,1.139,0,0,0,1.993,0l5.973-10.8h12.392A3.42,3.42,0,0,0,105,39.861V26.194A3.42,3.42,0,0,0,101.583,22.778Zm-19.361,28.4L68.186,25.79a15.945,15.945,0,1,1,29.98-7.567,15.741,15.741,0,0,1-.7,4.422,1.14,1.14,0,0,1-.3-.2l-.943-.943a3.4,3.4,0,0,0-2.416-1H91a8.771,8.771,0,0,0,.333-2.278,9.111,9.111,0,1,0-13.655,7.857c0,.039-.012.076-.012.115V39.861a3.42,3.42,0,0,0,3.417,3.417h5.5Zm6.833-32.952a6.629,6.629,0,0,1-.465,2.3,3.383,3.383,0,0,0-2.146.975l-.943.943a1.152,1.152,0,0,1-.805.334H81.083a3.4,3.4,0,0,0-2.556,1.173,6.826,6.826,0,1,1,10.528-5.728Zm13.667,21.639A1.14,1.14,0,0,1,101.583,41h-20.5a1.14,1.14,0,0,1-1.139-1.139V26.194a1.14,1.14,0,0,1,1.139-1.139H84.7a3.4,3.4,0,0,0,2.416-1l.943-.943a1.152,1.152,0,0,1,.805-.334h4.947a1.152,1.152,0,0,1,.805.334l.943.943a3.4,3.4,0,0,0,2.416,1h3.612a1.14,1.14,0,0,1,1.139,1.139Z" transform="translate(-64)" fill="#62909a"/>
      </g>
    </g>
  </g>
</svg>
