<svg id="Layer_1" data-name="Layer 1" xmlns="http://www.w3.org/2000/svg" viewBox="0 0 191.83 46.33"><defs><style>.cls-1{fill:#515151;}.cls-2{isolation:isolate;}</style></defs><g id="Group_1" data-name="Group 1"><g id="Path_1" data-name="Path 1"><path class="cls-1" d="M32.56,23.19a6.23,6.23,0,0,0,.93-1.88,9.5,9.5,0,0,0,.43-2,8.87,8.87,0,0,0,0-2.06,6.67,6.67,0,0,0-.59-2,9.3,9.3,0,0,0-2.52-3.15,10.54,10.54,0,0,0-3.54-1.93,9.22,9.22,0,0,0-3.94-.35A12.12,12.12,0,0,0,19.5,11a16.88,16.88,0,0,0-3.37,2.24,13.34,13.34,0,0,0-2.62,3A17.13,17.13,0,0,0,11,23.83a21,21,0,0,0,0,4,16.38,16.38,0,0,0,.92,3.85,18.76,18.76,0,0,0,4.29,6.7,19.74,19.74,0,0,0,6.6,4.49,16.84,16.84,0,0,0,7.81,1.25,18.3,18.3,0,0,0,7.66-2.09,13.4,13.4,0,0,0,3.14-2.36,16.08,16.08,0,0,0,2.39-3.17A11.24,11.24,0,0,0,45.39,29a9.52,9.52,0,0,0-1.5-3.58,10,10,0,0,0-2.75-2.78,6.64,6.64,0,0,0-3.61-1.16,6.29,6.29,0,0,0-3.65,1.06A5,5,0,0,0,32,25.84a4.65,4.65,0,0,0,.07,1.93,2.51,2.51,0,0,0,1.07,1.49A3.07,3.07,0,0,0,35,29.7a2.24,2.24,0,0,0,1.69-.85A1.53,1.53,0,0,0,36.59,27a1.09,1.09,0,0,0-.9-.35,1,1,0,0,0-.76.64,1.09,1.09,0,0,1,.75-.72,1.26,1.26,0,0,1,1,.31,1.43,1.43,0,0,1,.46,1,1.89,1.89,0,0,1-1.06,1.89,3.54,3.54,0,0,1-3.29,0A3.09,3.09,0,0,1,31.36,28a5.4,5.4,0,0,1-.21-2.26,6.6,6.6,0,0,1,.63-2.17,5.43,5.43,0,0,1,1.45-1.81,7.33,7.33,0,0,1,4.28-1.47,8,8,0,0,1,4.39,1.2A11,11,0,0,1,47,33.27a15.07,15.07,0,0,1-1.6,4.2,17.63,17.63,0,0,1-2.63,3.62,15.22,15.22,0,0,1-3.56,2.77,20,20,0,0,1-8.52,2.42c-.73,0-1.47.06-2.22,0-.37,0-.74,0-1.11-.06s-.76-.09-1.13-.14A20.13,20.13,0,0,1,22,44.92a21.75,21.75,0,0,1-7.28-5A20.3,20.3,0,0,1,10,32.41,18.14,18.14,0,0,1,9,28a24.06,24.06,0,0,1,.11-4.41,18.41,18.41,0,0,1,3-8.29,15.18,15.18,0,0,1,3-3.26A17.45,17.45,0,0,1,18.9,9.76,13.61,13.61,0,0,1,23.18,8.6a10.32,10.32,0,0,1,4.41.57,11.81,11.81,0,0,1,3.74,2.3A9.6,9.6,0,0,1,33.86,15a7.19,7.19,0,0,1,.5,2.13,8.66,8.66,0,0,1-.12,2.16,9.19,9.19,0,0,1-.6,2.06,6.22,6.22,0,0,1-1.08,1.82" transform="translate(0)"/></g><g id="Path_2" data-name="Path 2"><path class="cls-1" d="M26.1,6.67a4.62,4.62,0,0,1-.7-1.74,6,6,0,0,1-.09-1.69,5.84,5.84,0,0,1,.39-1.65A4.65,4.65,0,0,1,26.7,0a4.77,4.77,0,0,1,.7,1.75,5.91,5.91,0,0,1,.07,1.68,5.81,5.81,0,0,1-.37,1.65,5,5,0,0,1-1,1.59" transform="translate(0)"/></g><g id="Path_3" data-name="Path 3"><path class="cls-1" d="M18.36,6.61a4.63,4.63,0,0,1-1.18-1.46,6.45,6.45,0,0,1-.58-1.59,6.36,6.36,0,0,1-.12-1.69A4.79,4.79,0,0,1,17,.06a4.63,4.63,0,0,1,1.18,1.46,6.07,6.07,0,0,1,.58,1.59,6.36,6.36,0,0,1,.11,1.69,4.6,4.6,0,0,1-.48,1.81" transform="translate(0)"/></g><g id="Path_4" data-name="Path 4"><path class="cls-1" d="M8.7,14.76a4.58,4.58,0,0,1-1.88,0,6.16,6.16,0,0,1-1.6-.54,6.62,6.62,0,0,1-1.39-1,4.88,4.88,0,0,1-1.11-1.52,4.76,4.76,0,0,1,1.88,0,5.94,5.94,0,0,1,1.6.55,5.88,5.88,0,0,1,1.39,1A4.48,4.48,0,0,1,8.7,14.76" transform="translate(0)"/></g><g id="Path_5" data-name="Path 5"><path class="cls-1" d="M6.7,21.23A4.68,4.68,0,0,1,5,22.08a6.29,6.29,0,0,1-1.67.23,6,6,0,0,1-1.68-.24A4.58,4.58,0,0,1,0,21.21a4.85,4.85,0,0,1,1.68-.85,5.9,5.9,0,0,1,1.67-.22A6,6,0,0,1,5,20.38a4.8,4.8,0,0,1,1.67.85" transform="translate(0)"/></g><g id="Path_6" data-name="Path 6"><path class="cls-1" d="M12.9,9.28a4.85,4.85,0,0,1-1.77-.65A5.8,5.8,0,0,1,9.82,7.57a5.86,5.86,0,0,1-1-1.38,4.72,4.72,0,0,1-.52-1.81A4.83,4.83,0,0,1,10.09,5,5.9,5.9,0,0,1,11.4,6.09a6.07,6.07,0,0,1,1,1.38,4.73,4.73,0,0,1,.52,1.8" transform="translate(0)"/></g></g><g id="GOLDEN_HOUR" data-name="GOLDEN HOUR" class="cls-2"><g class="cls-2"><path class="cls-1" d="M57.76,20.15a5.55,5.55,0,0,1-2.27-2.33,7.64,7.64,0,0,1-.8-3.59,6.73,6.73,0,0,1,.87-3.5,5.58,5.58,0,0,1,2.38-2.21,7.72,7.72,0,0,1,3.46-.75A10.84,10.84,0,0,1,63.83,8a9.48,9.48,0,0,1,2.07.68,17.41,17.41,0,0,0-.21,2.94,3.7,3.7,0,0,1-1.48.23,3.22,3.22,0,0,0-.79-2.29,2.86,2.86,0,0,0-2-.65,3.21,3.21,0,0,0-2.07.66,3.84,3.84,0,0,0-1.23,1.77,7.17,7.17,0,0,0-.39,2.41,9.46,9.46,0,0,0,.45,3,4.78,4.78,0,0,0,1.3,2.11,3,3,0,0,0,2,.77,3,3,0,0,0,1.22-.19.91.91,0,0,0,.47-.41,2.06,2.06,0,0,0,.16-1v-.78a3.66,3.66,0,0,0-.11-1,.69.69,0,0,0-.4-.45,2.85,2.85,0,0,0-1-.14,4.15,4.15,0,0,1-.13-1.2q.95.06,2.49.06c.86,0,1.7,0,2.51,0a4.59,4.59,0,0,1-.12,1.18,1.06,1.06,0,0,0-.52.13.62.62,0,0,0-.22.4,5,5,0,0,0-.06.93v.63a5.64,5.64,0,0,0,.07.94,3.42,3.42,0,0,0,.24.75A7.1,7.1,0,0,1,64,20.56a9.47,9.47,0,0,1-2.75.4A7,7,0,0,1,57.76,20.15Z" transform="translate(0)"/><path class="cls-1" d="M71.27,20.11A5.67,5.67,0,0,1,69,17.75a7.24,7.24,0,0,1-.79-3.44,6.82,6.82,0,0,1,.83-3.44,5.77,5.77,0,0,1,2.28-2.29,6.73,6.73,0,0,1,3.31-.81,6.9,6.9,0,0,1,3.36.8,5.61,5.61,0,0,1,2.28,2.25,6.68,6.68,0,0,1,.82,3.35,7.4,7.4,0,0,1-.81,3.5A6,6,0,0,1,78,20.08a6.49,6.49,0,0,1-3.37.88A6.66,6.66,0,0,1,71.27,20.11Zm6-1.8a7.14,7.14,0,0,0,.83-3.7,8.35,8.35,0,0,0-.46-2.85,4.93,4.93,0,0,0-1.33-2A2.84,2.84,0,0,0,74.36,9a2.56,2.56,0,0,0-2.25,1.3,6.6,6.6,0,0,0-.83,3.56,9.92,9.92,0,0,0,.42,3,5,5,0,0,0,1.24,2.14,2.82,2.82,0,0,0,2,.8A2.54,2.54,0,0,0,77.25,18.31Z" transform="translate(0)"/><path class="cls-1" d="M90.53,19.06a4.4,4.4,0,0,0,1-1.94,2.6,2.6,0,0,1,1.46.55,15.32,15.32,0,0,0-.58,3.15c-1.3,0-2.77,0-4.41,0-1.84,0-3.65,0-5.44.06a4.49,4.49,0,0,1,.12-1.18,1.84,1.84,0,0,0,.81-.2.85.85,0,0,0,.38-.57,6,6,0,0,0,.1-1.24V11a5.3,5.3,0,0,0-.1-1.14.88.88,0,0,0-.38-.54,2,2,0,0,0-.81-.22,4.76,4.76,0,0,1-.12-1.18q1.48.06,2.85.06c1.16,0,2.11,0,2.87-.06a3.7,3.7,0,0,1-.13,1.18,2.17,2.17,0,0,0-.8.21.82.82,0,0,0-.37.54A5,5,0,0,0,86.9,11v6.59A4.45,4.45,0,0,0,87,18.84a1,1,0,0,0,.47.6,2.22,2.22,0,0,0,1,.17h.23A2.7,2.7,0,0,0,90.53,19.06Z" transform="translate(0)"/><path class="cls-1" d="M104.66,9.2q1.92,1.31,1.92,4.84a6.6,6.6,0,0,1-1.23,4.3,5.86,5.86,0,0,1-2.81,2,10.26,10.26,0,0,1-3,.47c-1.83,0-3.65,0-5.43.06a5.06,5.06,0,0,1,.11-1.18,1.77,1.77,0,0,0,.81-.2.85.85,0,0,0,.38-.57,5.4,5.4,0,0,0,.1-1.24V11a4.65,4.65,0,0,0-.1-1.15A.85.85,0,0,0,95,9.28a2,2,0,0,0-.82-.22,5.37,5.37,0,0,1-.11-1.18c.76,0,1.89.06,3.38.06l.93,0,1.18,0A9,9,0,0,1,104.66,9.2Zm-2.11,9.3c.69-.75,1-2.12,1-4.14a5.85,5.85,0,0,0-1.17-4.08,3.88,3.88,0,0,0-3-1.26,2.81,2.81,0,0,0-1,.17v8.4a4.86,4.86,0,0,0,.13,1.25,1,1,0,0,0,.47.6,2.27,2.27,0,0,0,1,.17A3.35,3.35,0,0,0,102.55,18.5Z" transform="translate(0)"/><path class="cls-1" d="M118.63,17.67a15.29,15.29,0,0,0-.59,3.15c-1.27,0-2.79,0-4.56,0s-3.65,0-5.44.06a4.49,4.49,0,0,1,.12-1.18,1.76,1.76,0,0,0,.8-.2.79.79,0,0,0,.38-.57,5.28,5.28,0,0,0,.11-1.24V11a4.55,4.55,0,0,0-.11-1.15.81.81,0,0,0-.37-.53,2,2,0,0,0-.81-.22A4.1,4.1,0,0,1,108,7.88c1,0,2.42.06,4.28.06q3.87,0,5.22-.06,0,.81.15,1.71a10.1,10.1,0,0,0,.25,1.5,3.21,3.21,0,0,1-1.44.29,3.06,3.06,0,0,0-.78-1.71,2.86,2.86,0,0,0-2.07-.61h-1.31v4.71h.55a2.45,2.45,0,0,0,1.4-.29,1.45,1.45,0,0,0,.38-1.13,4.19,4.19,0,0,1,1.35-.19c0,.83-.07,1.56-.07,2.16s0,1.44.07,2.23a4.3,4.3,0,0,1-1.31-.15,1.63,1.63,0,0,0-.45-1.16,2.23,2.23,0,0,0-1.37-.31h-.55v2.66a4,4,0,0,0,.14,1.25,1,1,0,0,0,.48.6,2.22,2.22,0,0,0,1,.17h.23a3.78,3.78,0,0,0,1.52-.26,1.93,1.93,0,0,0,.89-.78,6.18,6.18,0,0,0,.61-1.45A2.57,2.57,0,0,1,118.63,17.67Z" transform="translate(0)"/><path class="cls-1" d="M132.25,7.88a5.37,5.37,0,0,1-.11,1.18,1.18,1.18,0,0,0-.73.27,1.35,1.35,0,0,0-.34.79,11.22,11.22,0,0,0-.09,1.66v9a4.52,4.52,0,0,1-1.33.16l-7.09-9.43v5.4a9.83,9.83,0,0,0,.11,1.67,1.41,1.41,0,0,0,.41.81,1.52,1.52,0,0,0,.89.27,4.21,4.21,0,0,1,.13,1.18q-.82-.06-2.13-.06c-1,0-1.72,0-2.2.06a3.87,3.87,0,0,1,.13-1.18,1.5,1.5,0,0,0,.87-.28,1.43,1.43,0,0,0,.44-.82,7.69,7.69,0,0,0,.13-1.65v-7l-.19-.25a1.28,1.28,0,0,0-.45-.4,3.06,3.06,0,0,0-.8-.17,4.37,4.37,0,0,1-.13-1.18c.45,0,1.13.06,2,.06a16.37,16.37,0,0,0,1.77-.06l6.17,8.34V11.78a9.54,9.54,0,0,0-.11-1.66,1.23,1.23,0,0,0-.43-.77,1.83,1.83,0,0,0-.94-.29,5.38,5.38,0,0,1-.11-1.18c.55,0,1.28.06,2.18.06S131.78,7.92,132.25,7.88Z" transform="translate(0)"/><path class="cls-1" d="M149.45,18.91a.88.88,0,0,0,.37.55,1.76,1.76,0,0,0,.8.2,3.87,3.87,0,0,1,.13,1.18c-.65,0-1.55-.06-2.69-.06s-2.24,0-3,.06a3.89,3.89,0,0,1,.15-1.18,1.68,1.68,0,0,0,.79-.2.87.87,0,0,0,.36-.55,4.89,4.89,0,0,0,.1-1.17v-3a43.83,43.83,0,0,0-4.63.17v2.81a4.33,4.33,0,0,0,.11,1.17.89.89,0,0,0,.38.55,1.72,1.72,0,0,0,.8.2,4.94,4.94,0,0,1,.11,1.18q-1-.06-2.7-.06t-3,.06a4.49,4.49,0,0,1,.14-1.18,1.68,1.68,0,0,0,.79-.2.84.84,0,0,0,.37-.55,4.79,4.79,0,0,0,.11-1.17V11a4.55,4.55,0,0,0-.11-1.15.87.87,0,0,0-.36-.53,1.93,1.93,0,0,0-.8-.22,4,4,0,0,1-.14-1.18q1,.06,2.91.06,1.65,0,2.79-.06c0,.22,0,.43,0,.63a1.85,1.85,0,0,1-.11.55,2.17,2.17,0,0,0-.8.21.82.82,0,0,0-.37.53,4.8,4.8,0,0,0-.1,1.16v2.6h4.63V11a4.65,4.65,0,0,0-.1-1.15.87.87,0,0,0-.36-.53,1.93,1.93,0,0,0-.81-.22A4,4,0,0,1,145,7.88c.67,0,1.64.06,2.9.06s2.06,0,2.81-.06a3.64,3.64,0,0,1-.15,1.18,2.17,2.17,0,0,0-.79.21.85.85,0,0,0-.36.53,4.8,4.8,0,0,0-.1,1.16v6.78A4.89,4.89,0,0,0,149.45,18.91Z" transform="translate(0)"/><path class="cls-1" d="M155.23,20.11A5.67,5.67,0,0,1,153,17.75a7.24,7.24,0,0,1-.79-3.44,6.82,6.82,0,0,1,.83-3.44,5.77,5.77,0,0,1,2.28-2.29,6.73,6.73,0,0,1,3.31-.81,6.9,6.9,0,0,1,3.36.8,5.61,5.61,0,0,1,2.28,2.25,6.68,6.68,0,0,1,.82,3.35,7.4,7.4,0,0,1-.81,3.5A6,6,0,0,1,162,20.08a6.49,6.49,0,0,1-3.37.88A6.66,6.66,0,0,1,155.23,20.11Zm6-1.8a7.14,7.14,0,0,0,.83-3.7,8.35,8.35,0,0,0-.46-2.85,4.84,4.84,0,0,0-1.33-2A2.84,2.84,0,0,0,158.32,9a2.53,2.53,0,0,0-2.24,1.3,6.51,6.51,0,0,0-.84,3.56,9.92,9.92,0,0,0,.42,3,5,5,0,0,0,1.24,2.14,2.82,2.82,0,0,0,2,.8A2.54,2.54,0,0,0,161.21,18.31Z" transform="translate(0)"/><path class="cls-1" d="M176.6,18.29a3.26,3.26,0,0,1-.86,1.62A4.55,4.55,0,0,1,172.49,21a7,7,0,0,1-2.89-.5,3,3,0,0,1-1.52-1.5,6.53,6.53,0,0,1-.45-2.64V11a5.42,5.42,0,0,0-.1-1.19.84.84,0,0,0-.33-.53,1.88,1.88,0,0,0-.77-.24,5.09,5.09,0,0,1-.11-1.18c.5,0,1.31.06,2.41.06,1.52,0,2.58,0,3.17-.06a5.18,5.18,0,0,1-.11,1.18,2.26,2.26,0,0,0-.82.23.83.83,0,0,0-.34.53,5.6,5.6,0,0,0-.1,1.2v5a4.86,4.86,0,0,0,.62,2.7,2.22,2.22,0,0,0,2,.92,2.63,2.63,0,0,0,1-.19,1.85,1.85,0,0,0,.82-.57,2.76,2.76,0,0,0,.5-1.16,10.5,10.5,0,0,0,.17-2.16v-4a6.62,6.62,0,0,0-.12-1.45,1.24,1.24,0,0,0-.38-.73,1.48,1.48,0,0,0-.8-.31,7.34,7.34,0,0,1-.09-1.18c.47,0,1.13.06,2,.06s1.44,0,1.92-.06A5.09,5.09,0,0,1,178,9.06a1.37,1.37,0,0,0-.74.3,1.16,1.16,0,0,0-.34.7,7.11,7.11,0,0,0-.1,1.4V15.6A11.81,11.81,0,0,1,176.6,18.29Z" transform="translate(0)"/><path class="cls-1" d="M190.72,19.26a2,2,0,0,0,1.11.35,4.15,4.15,0,0,1-.15,1.17A25.92,25.92,0,0,0,188,21c-.35-.66-.72-1.44-1.1-2.32l-.21-.48a11.66,11.66,0,0,0-.81-1.57,7.19,7.19,0,0,0-1-1.14h-1v2.18a5.7,5.7,0,0,0,.1,1.27.87.87,0,0,0,.32.57,1.26,1.26,0,0,0,.66.19,3.82,3.82,0,0,1,.12,1.18q-1.14-.06-2.85-.06t-2.64.06a4.87,4.87,0,0,1,.11-1.18,1.72,1.72,0,0,0,.8-.2.89.89,0,0,0,.38-.55,4.79,4.79,0,0,0,.11-1.17v-6.8a4.8,4.8,0,0,0-.1-1.16.82.82,0,0,0-.37-.53,2.24,2.24,0,0,0-.82-.21,4.2,4.2,0,0,1-.11-1.16c1.17,0,2.11.06,2.81.06l1.4,0c.89,0,1.63,0,2.21,0a5.07,5.07,0,0,1,3.33,1,3,3,0,0,1,1.13,2.46,3.71,3.71,0,0,1-.79,2.44,4,4,0,0,1-2.15,1.3,4.18,4.18,0,0,1,1.11,1,17.68,17.68,0,0,1,1.21,2.07A4.58,4.58,0,0,0,190.72,19.26Zm-4.09-5.68a2.42,2.42,0,0,0,.81-2,2.71,2.71,0,0,0-.62-1.89A2.42,2.42,0,0,0,185,9a3.61,3.61,0,0,0-1.08.15v5a4,4,0,0,0,.7.08A3.07,3.07,0,0,0,186.63,13.58Z" transform="translate(0)"/></g></g><g id="Group_16" data-name="Group 16"><g id="Photography" class="cls-2"><g class="cls-2"><path class="cls-1" d="M63.65,34.1a2.51,2.51,0,0,1-.33,1.51,4.8,4.8,0,0,1-1,1.27,6.86,6.86,0,0,1-1.42.94,7,7,0,0,1-1.45.56,1.78,1.78,0,0,0-.06.39c0,.17,0,.33,0,.51s0,.34,0,.51,0,.3,0,.4,0,.22,0,.32a.83.83,0,0,1,0,.27.59.59,0,0,1-.09.24.87.87,0,0,1-.26.22.81.81,0,0,1-.29.09.26.26,0,0,1-.28-.13.67.67,0,0,1-.1-.31c0-.65-.09-1.27-.12-1.85s0-1.18,0-1.75.06-1.16.12-1.74.15-1.2.26-1.84c0-.09,0-.21.06-.34a3.2,3.2,0,0,1,.1-.42,2.24,2.24,0,0,1,.14-.39.57.57,0,0,1,.19-.25.35.35,0,0,1,.16-.08l.18,0a.72.72,0,0,1,.4.06.4.4,0,0,1,.19.34c0,.09,0,.2,0,.32s0,.26-.07.4a2.59,2.59,0,0,1-.09.4c0,.13,0,.24-.07.34q-.18,1-.27,1.92c-.06.64-.09,1.29-.1,2a10.29,10.29,0,0,0,1.16-.48,5.55,5.55,0,0,0,1.14-.73,3.71,3.71,0,0,0,.85-1,2,2,0,0,0,.27-1.21,2,2,0,0,0-.4-1.08,3.32,3.32,0,0,0-.85-.82,4.27,4.27,0,0,0-1.1-.52,3.88,3.88,0,0,0-1.13-.19h-.25a1.71,1.71,0,0,1-.32,0,.82.82,0,0,1-.29-.07.2.2,0,0,1-.13-.18.46.46,0,0,1,0-.22.55.55,0,0,1,.19-.31,1,1,0,0,1,.36-.09,4.8,4.8,0,0,1,1.48.12,5.31,5.31,0,0,1,1.49.58,4.32,4.32,0,0,1,1.18,1A2.44,2.44,0,0,1,63.65,34.1Z" transform="translate(0)"/></g><g class="cls-2"><path class="cls-1" d="M67.81,35.36a5,5,0,0,0-.47.74c-.17.3-.34.63-.52,1s-.34.71-.48,1-.28.64-.4.9l-.23.58a2.24,2.24,0,0,1-.1.26,2,2,0,0,1-.13.25.67.67,0,0,1-.19.22.51.51,0,0,1-.25.1.3.3,0,0,1-.23-.07.58.58,0,0,1-.15-.19.5.5,0,0,1-.09-.24c0-.09,0-.17,0-.24a5,5,0,0,1,0-.67l0-.68c0-.42,0-.83,0-1.24l0-1.24c0-.47,0-1,.05-1.6s.06-1.19.11-1.8.13-1.2.22-1.77a7.41,7.41,0,0,1,.41-1.49,1.66,1.66,0,0,1,.16-.33,2.18,2.18,0,0,1,.22-.31,1.32,1.32,0,0,1,.28-.25.89.89,0,0,1,.35-.11.48.48,0,0,1,.36.1.93.93,0,0,1,.25.3,1.63,1.63,0,0,1,.13.39,3.35,3.35,0,0,1,.06.36,9.43,9.43,0,0,1-.18,2.86A18.26,18.26,0,0,1,66.2,35l-.27.64c-.1.21-.19.42-.28.62a2.1,2.1,0,0,0-.06.38c0,.2,0,.42-.06.65s0,.46,0,.68,0,.36,0,.45c.06-.18.15-.4.27-.67s.25-.55.39-.85.31-.61.49-.91a7.66,7.66,0,0,1,.56-.84,3.92,3.92,0,0,1,.59-.62,1.11,1.11,0,0,1,.61-.26.54.54,0,0,1,.38.08.93.93,0,0,1,.25.27,2.39,2.39,0,0,1,.15.37,2.71,2.71,0,0,1,.06.38,9.86,9.86,0,0,1,0,1.63,11.22,11.22,0,0,0,0,1.64c0,.06,0,.12,0,.19a.6.6,0,0,0,.06.19.3.3,0,0,0,.12.13.26.26,0,0,0,.2,0,1,1,0,0,0,.56-.27,3.69,3.69,0,0,0,.54-.57,8.12,8.12,0,0,0,.48-.67c.14-.23.25-.41.33-.56l.12-.21a.21.21,0,0,1,.19-.14.15.15,0,0,1,.16.06.35.35,0,0,1,0,.18.2.2,0,0,1,0,.11l0,.1a5.41,5.41,0,0,1-.44.86,5.7,5.7,0,0,1-.66.89,4.12,4.12,0,0,1-.8.71,1.87,1.87,0,0,1-.89.33.45.45,0,0,1-.43-.17,1.54,1.54,0,0,1-.24-.48,3.29,3.29,0,0,1-.13-.58c0-.2,0-.36,0-.48a13.3,13.3,0,0,1-.06-1.41c0-.47,0-.94,0-1.41v-.1a.89.89,0,0,0,0-.19c0-.08-.06-.12-.13-.11S68,35.16,67.81,35.36Zm-1.62-6.07a6.42,6.42,0,0,0-.28,1c-.08.41-.15.87-.2,1.36s-.11,1-.14,1.44-.06.87-.07,1.23,0,.62,0,.77c.17-.38.33-.8.5-1.29s.31-1,.44-1.5.22-1,.29-1.52a6.36,6.36,0,0,0,.05-1.35s0-.08,0-.14a1.55,1.55,0,0,0,0-.21,1.89,1.89,0,0,0-.06-.18c0-.05-.06-.07-.1-.07S66.29,29,66.19,29.29Z" transform="translate(0)"/></g><g class="cls-2"><path class="cls-1" d="M72,36.71a4.55,4.55,0,0,1,.37-1.15,3.29,3.29,0,0,1,.68-.94,1.68,1.68,0,0,1,1-.45,1,1,0,0,1,.61.12,1.27,1.27,0,0,1,.41.39,2,2,0,0,1,.24.56,2.53,2.53,0,0,1,.11.6,4.22,4.22,0,0,1,0,.87,3.47,3.47,0,0,1-.17.85,3.76,3.76,0,0,1-.36.79,2.44,2.44,0,0,1-.59.65,2.31,2.31,0,0,1-.45.29,1.67,1.67,0,0,1-.53.14,1.06,1.06,0,0,1-.6-.11,1.28,1.28,0,0,1-.42-.38A1.68,1.68,0,0,1,72,38.4a3.25,3.25,0,0,1-.12-.59A3.89,3.89,0,0,1,72,36.71Zm1.51-1.33a2.69,2.69,0,0,0-.4.75,4.51,4.51,0,0,0-.21.88,4.18,4.18,0,0,0,0,.75,2.45,2.45,0,0,0,.06.34,1.08,1.08,0,0,0,.13.33.67.67,0,0,0,.22.25.44.44,0,0,0,.34.08.85.85,0,0,0,.31-.09l.26-.2a2.07,2.07,0,0,0,.38-.5,3,3,0,0,0,.24-.59,4,4,0,0,0,.1-1.25,3.35,3.35,0,0,0-.06-.36,1.47,1.47,0,0,0-.13-.37.81.81,0,0,0-.24-.28.4.4,0,0,0-.34-.09A.86.86,0,0,0,73.49,35.38Z" transform="translate(0)"/></g><g class="cls-2"><path class="cls-1" d="M78.82,33.72c-.16.42-.34.82-.52,1.19a2.49,2.49,0,0,1-.15.28c-.05.09-.1.18-.16.27l-.09.14a.55.55,0,0,0-.08.15.29.29,0,0,0,0,.14.82.82,0,0,1,0,.14q0,.19.09.6a5.93,5.93,0,0,0,.19.81,3.09,3.09,0,0,0,.3.71.47.47,0,0,0,.45.27,1.1,1.1,0,0,0,.6-.28,4.52,4.52,0,0,0,.56-.59,5.35,5.35,0,0,0,.47-.7c.14-.24.25-.45.34-.61a1.2,1.2,0,0,1,.12-.21.28.28,0,0,1,.19-.12.21.21,0,0,1,.13.05.18.18,0,0,1,.06.13.53.53,0,0,1,0,.28,1.59,1.59,0,0,1-.12.27c-.1.22-.24.47-.41.76a7,7,0,0,1-.6.83,4.13,4.13,0,0,1-.71.68,1.47,1.47,0,0,1-.76.32.92.92,0,0,1-.61-.15,1.91,1.91,0,0,1-.48-.5,4,4,0,0,1-.35-.72A7.81,7.81,0,0,1,77,37c-.06-.27-.12-.53-.16-.77s-.06-.45-.07-.61c0-.43-.06-.85-.07-1.28a9.07,9.07,0,0,1,.06-1.28,1.1,1.1,0,0,1-.26.06.27.27,0,0,1-.34-.28.33.33,0,0,1,.19-.36,1.9,1.9,0,0,1,.43-.13c0-.23.12-.56.22-1a9.31,9.31,0,0,1,.37-1.21,4.75,4.75,0,0,1,.57-1,1.08,1.08,0,0,1,.79-.48.4.4,0,0,1,.33.1.84.84,0,0,1,.2.29,1.66,1.66,0,0,1,.11.38c0,.13,0,.25,0,.34a7.06,7.06,0,0,1,0,1,6.9,6.9,0,0,1-.13,1l.44-.1a2.14,2.14,0,0,1,.44-.08c.12,0,.18,0,.19.15a.2.2,0,0,1,0,.16l-.12.1-.18.09-.31.12-.31.11-.23.07A6.61,6.61,0,0,1,78.82,33.72ZM77.61,34c0,.35,0,.7,0,1,.08-.13.17-.3.27-.5s.2-.41.29-.63.17-.43.24-.65.11-.39.14-.55a3.43,3.43,0,0,1-.46.11,2.23,2.23,0,0,0-.44.13A6,6,0,0,0,77.61,34Zm.72-4.23a4.39,4.39,0,0,0-.33.87,8.64,8.64,0,0,0-.22.95,6.33,6.33,0,0,0-.1.66l.53-.11a2.33,2.33,0,0,0,.52-.13,8.29,8.29,0,0,0,.17-1.12,7.22,7.22,0,0,0,0-1.14v-.09a.5.5,0,0,0,0-.12.43.43,0,0,0-.05-.12.07.07,0,0,0-.08,0C78.59,29.35,78.45,29.48,78.33,29.73Z" transform="translate(0)"/></g><g class="cls-2"><path class="cls-1" d="M81.25,35.9a4.55,4.55,0,0,1,.37-1.15,3.29,3.29,0,0,1,.68-.94,1.62,1.62,0,0,1,1-.45,1,1,0,0,1,.61.12,1.27,1.27,0,0,1,.41.39,1.76,1.76,0,0,1,.24.56,2.53,2.53,0,0,1,.11.6,4.22,4.22,0,0,1,0,.87,3.47,3.47,0,0,1-.17.85,3.76,3.76,0,0,1-.36.79,2.4,2.4,0,0,1-.58.65,2.18,2.18,0,0,1-.46.28,1.61,1.61,0,0,1-.53.15,1.06,1.06,0,0,1-.6-.11,1.28,1.28,0,0,1-.42-.38,1.73,1.73,0,0,1-.25-.53,3.43,3.43,0,0,1-.12-.59A3.94,3.94,0,0,1,81.25,35.9Zm1.51-1.33a2.69,2.69,0,0,0-.4.75,4.51,4.51,0,0,0-.21.88,3.33,3.33,0,0,0,0,.75,1.47,1.47,0,0,0,0,.34,1.08,1.08,0,0,0,.13.33.76.76,0,0,0,.22.25.5.5,0,0,0,.34.09.87.87,0,0,0,.31-.1l.26-.2a2.07,2.07,0,0,0,.38-.5,3,3,0,0,0,.24-.59,4,4,0,0,0,.1-1.25c0-.1,0-.22-.05-.36a1.49,1.49,0,0,0-.14-.37.91.91,0,0,0-.23-.28.51.51,0,0,0-.35-.09A.88.88,0,0,0,82.76,34.57Z" transform="translate(0)"/></g><g class="cls-2"><path class="cls-1" d="M88.51,33.46a4.39,4.39,0,0,0-.86.8,5.19,5.19,0,0,0-.34.49,4.3,4.3,0,0,0-.32.6,4,4,0,0,0-.23.63,2.14,2.14,0,0,0-.06.6.63.63,0,0,0,.12.34.3.3,0,0,0,.33.12,1.1,1.1,0,0,0,.66-.36,4.93,4.93,0,0,0,.7-.79A7.13,7.13,0,0,0,89.1,35a4.13,4.13,0,0,0,.35-.74,2,2,0,0,1,.25-.47.64.64,0,0,1,.45-.27.45.45,0,0,1,.37.12.5.5,0,0,1,.15.35c0,.37.07.83.09,1.39s0,1.15,0,1.78a17.63,17.63,0,0,1-.17,1.9,7.21,7.21,0,0,1-.45,1.72,3.82,3.82,0,0,1-.83,1.3,2.07,2.07,0,0,1-1.32.58,1.16,1.16,0,0,1-.56-.08.92.92,0,0,1-.44-.37L87,42.07a.28.28,0,0,1,0-.12.32.32,0,0,1,.06-.23.27.27,0,0,1,.2-.11.17.17,0,0,1,.18.07,1.4,1.4,0,0,1,.13.18.93.93,0,0,0,.16.18.34.34,0,0,0,.28.07,1,1,0,0,0,.71-.41,3.2,3.2,0,0,0,.51-.92,8.11,8.11,0,0,0,.35-1.23c.08-.45.15-.89.19-1.32s.06-.84.07-1.21,0-.66,0-.87,0-.34,0-.52-.05-.35-.08-.52a6.91,6.91,0,0,1-.42.76,8,8,0,0,1-.6.84,4.68,4.68,0,0,1-.72.69,1.41,1.41,0,0,1-.77.33,1.07,1.07,0,0,1-.46-.06,1,1,0,0,1-.32-.25,1.35,1.35,0,0,1-.19-.38,2.11,2.11,0,0,1-.08-.45,2.94,2.94,0,0,1,0-.72,5.2,5.2,0,0,1,.2-.75,5.52,5.52,0,0,1,.34-.69,3.73,3.73,0,0,1,.41-.6,3.67,3.67,0,0,1,1-.85,3.28,3.28,0,0,1,1.28-.38,2.58,2.58,0,0,1,.38,0,4,4,0,0,1,.48.09,1.15,1.15,0,0,1,.42.19.4.4,0,0,1,.2.3.12.12,0,0,1,0,.1.18.18,0,0,1-.1,0,.45.45,0,0,1-.17,0l-.24-.11-.3-.09a1,1,0,0,0-.35,0A2.2,2.2,0,0,0,88.51,33.46Z" transform="translate(0)"/></g><g class="cls-2"><path class="cls-1" d="M94,34.08a1.92,1.92,0,0,0-.55-.24c0,.2-.11.41-.18.62a5.39,5.39,0,0,1-.22.64c-.09.22-.18.43-.28.63a3.62,3.62,0,0,1-.36.54.67.67,0,0,1-.15.14.25.25,0,0,1-.18.08c-.12,0-.18,0-.19-.15a.77.77,0,0,1,0-.15.61.61,0,0,1,.07-.14c.22-.39.43-.78.61-1.18a3.07,3.07,0,0,0,.3-1.26,1.66,1.66,0,0,1-.3-.49,2.15,2.15,0,0,1-.13-.57,3,3,0,0,1,0-.41,2.84,2.84,0,0,1,.1-.49,1.38,1.38,0,0,1,.21-.42.42.42,0,0,1,.32-.2.26.26,0,0,1,.23.1,1.06,1.06,0,0,1,.15.28,1.19,1.19,0,0,1,.1.32,1.57,1.57,0,0,1,0,.27,4.42,4.42,0,0,1,0,.63,1.28,1.28,0,0,0,.45.34l.54.28a1.75,1.75,0,0,1,.47.39,1.24,1.24,0,0,1,.24.67,3.12,3.12,0,0,1,0,.51c0,.3-.08.61-.1.92a4.71,4.71,0,0,0,0,.92,2.37,2.37,0,0,0,.06.31.2.2,0,0,0,.23.15.91.91,0,0,0,.49-.26,4.88,4.88,0,0,0,.53-.57c.17-.22.33-.43.48-.65s.25-.39.32-.52l.13-.21a.25.25,0,0,1,.19-.13.17.17,0,0,1,.16.07,1.05,1.05,0,0,1,.05.19.59.59,0,0,1,0,.14l-.06.14c-.09.17-.23.39-.41.66a7.36,7.36,0,0,1-.6.78,3.83,3.83,0,0,1-.68.66,1.33,1.33,0,0,1-.67.31.67.67,0,0,1-.53-.15,1.34,1.34,0,0,1-.31-.45,2.16,2.16,0,0,1-.16-.58c0-.2-.05-.38-.07-.54s0-.48,0-.72,0-.47,0-.71A.66.66,0,0,0,94,34.08Z" transform="translate(0)"/></g><g class="cls-2"><path class="cls-1" d="M103.56,34.7a2,2,0,0,0-.15.27c-.11.18-.24.38-.4.61a5.29,5.29,0,0,1-.51.66,3,3,0,0,1-.6.53,1.41,1.41,0,0,1-.66.26.64.64,0,0,1-.54-.18,1.76,1.76,0,0,1-.35-.52,2.84,2.84,0,0,1-.18-.65,5.27,5.27,0,0,1-.07-.58c-.07.14-.17.31-.29.52a5.58,5.58,0,0,1-.39.6,3.34,3.34,0,0,1-.47.51.85.85,0,0,1-.51.24.5.5,0,0,1-.4-.11.89.89,0,0,1-.27-.33,1.82,1.82,0,0,1-.16-.43c0-.15,0-.29-.07-.41a3.44,3.44,0,0,1,.15-1.17,5.56,5.56,0,0,1,.55-1.28,4.41,4.41,0,0,1,.84-1.05,1.82,1.82,0,0,1,1.07-.48.44.44,0,0,1,.29.1.41.41,0,0,1,.17.26.13.13,0,0,1,0,.1l-.09.07c-.22.16-.43.32-.63.49a3.8,3.8,0,0,0-.55.58,4,4,0,0,0-.7,1.23,3,3,0,0,0-.18,1.4.81.81,0,0,0,0,.19.13.13,0,0,0,.15.11.53.53,0,0,0,.31-.2,4.33,4.33,0,0,0,.34-.48q.17-.29.33-.63l.3-.67.24-.6.15-.41a1.47,1.47,0,0,1,.14-.28.34.34,0,0,1,.27-.15.65.65,0,0,1,.2,0A.17.17,0,0,1,101,33a1.77,1.77,0,0,1-.06.39c0,.16-.09.29-.11.38a4.28,4.28,0,0,0-.09.74,5.67,5.67,0,0,0,0,.72c0,.07,0,.17,0,.31s0,.27.08.41a1.15,1.15,0,0,0,.16.37.27.27,0,0,0,.25.14.88.88,0,0,0,.5-.25,4.48,4.48,0,0,0,.52-.54,7,7,0,0,0,.45-.62c.14-.21.24-.38.31-.51l.12-.22a.27.27,0,0,1,.21-.13c.14,0,.22.06.23.23A.5.5,0,0,1,103.56,34.7Z" transform="translate(0)"/></g><g class="cls-2"><path class="cls-1" d="M106.25,36.5a4,4,0,0,1-.6,0,3.19,3.19,0,0,1-.55-.16,1.21,1.21,0,0,1-.42-.31c0,.4,0,.88,0,1.42s0,1.1,0,1.66-.06,1.11-.12,1.64a6.75,6.75,0,0,1-.25,1.32,2.24,2.24,0,0,1-.12.29,1.28,1.28,0,0,1-.17.3,1,1,0,0,1-.24.23.49.49,0,0,1-.29.11.47.47,0,0,1-.38-.11,1.07,1.07,0,0,1-.25-.34,2,2,0,0,1-.14-.43,3.77,3.77,0,0,1-.06-.39,10.27,10.27,0,0,1,0-1.57c0-.56.11-1.14.2-1.72s.2-1.15.33-1.72.24-1.08.36-1.56a2.82,2.82,0,0,0,0-.34c0-.15,0-.27,0-.35,0-.31,0-.61,0-.92s0-.61,0-.91c0-.08,0-.18,0-.3a1.2,1.2,0,0,1,0-.33.63.63,0,0,1,.1-.28.27.27,0,0,1,.24-.14.5.5,0,0,1,.26.05,1,1,0,0,1,.23.19.78.78,0,0,1,.16.24.66.66,0,0,1,.08.25,3.38,3.38,0,0,1,0,.45c0,.15,0,.3,0,.45.1-.16.23-.36.39-.57a6,6,0,0,1,.51-.64,3.32,3.32,0,0,1,.59-.54,1.4,1.4,0,0,1,.62-.25,1.08,1.08,0,0,1,.53.08.85.85,0,0,1,.35.3,1.38,1.38,0,0,1,.21.44,3.06,3.06,0,0,1,.1.51,4.15,4.15,0,0,1,0,.78,5,5,0,0,1-.16.84,4.59,4.59,0,0,1-.29.81,2.48,2.48,0,0,1-.41.65,1.23,1.23,0,0,1-.26.25.74.74,0,0,1-.32.16h.39a2.5,2.5,0,0,0,.86-.24,4.21,4.21,0,0,0,.76-.51,5,5,0,0,0,.61-.69,5.43,5.43,0,0,0,.44-.77l.1-.22a.2.2,0,0,1,.17-.14c.14,0,.22.06.24.22a.41.41,0,0,1,0,.2.87.87,0,0,1-.08.19,6.87,6.87,0,0,1-.55.91,5,5,0,0,1-.69.75,3.17,3.17,0,0,1-.86.53,3.12,3.12,0,0,1-1,.26Zm-2.76,1c-.08.47-.16,1-.22,1.47s-.1,1-.12,1.47a11.86,11.86,0,0,0,0,1.23s0,.07,0,.13a1.42,1.42,0,0,0,0,.2l.06.17a.1.1,0,0,0,.1.07c.05,0,.09-.08.14-.22s.07-.29.09-.46,0-.34.06-.49,0-.25,0-.3c.06-.74.09-1.48.1-2.23s0-1.49,0-2.23A10.65,10.65,0,0,0,103.49,37.53Zm1.28-2a.5.5,0,0,1,.25.07.6.6,0,0,0,.4.06,1,1,0,0,0,.71-.44,3.71,3.71,0,0,0,.53-.94,6.31,6.31,0,0,0,.32-1.08,3.77,3.77,0,0,0,.07-.88,1.4,1.4,0,0,0-.11-.41.3.3,0,0,0-.33-.19.9.9,0,0,0-.51.29,4.5,4.5,0,0,0-.54.6,8.17,8.17,0,0,0-.49.71,4.72,4.72,0,0,0-.3.56,1,1,0,0,0,0,.3q0,.24,0,.51v.89A.14.14,0,0,1,104.77,35.54Z" transform="translate(0)"/></g><g class="cls-2"><path class="cls-1" d="M113.09,31.4a5.2,5.2,0,0,0-.47.75c-.17.3-.34.63-.52,1s-.34.7-.49,1-.28.63-.39.9-.19.46-.23.57-.06.17-.1.26a2.1,2.1,0,0,1-.13.26.76.76,0,0,1-.19.21.43.43,0,0,1-.25.1.3.3,0,0,1-.23-.06.66.66,0,0,1-.24-.44c0-.09,0-.17,0-.24a3.75,3.75,0,0,1,0-.67l0-.67c0-.42,0-.84,0-1.25l0-1.24c0-.47,0-1,0-1.59s.06-1.2.11-1.81.12-1.19.22-1.77a7.8,7.8,0,0,1,.41-1.49,1.91,1.91,0,0,1,.16-.32,2.27,2.27,0,0,1,.22-.32,1.27,1.27,0,0,1,.28-.24.73.73,0,0,1,.35-.12.5.5,0,0,1,.36.1.89.89,0,0,1,.24.3,1.3,1.3,0,0,1,.14.39,3.49,3.49,0,0,1,.06.37,9.14,9.14,0,0,1-.19,2.86,16.51,16.51,0,0,1-.85,2.75c-.08.22-.17.43-.27.64l-.27.62a1.94,1.94,0,0,0-.06.38c0,.19,0,.41-.06.65s0,.46,0,.67,0,.37,0,.46a6.69,6.69,0,0,1,.27-.67c.11-.27.24-.56.39-.86s.31-.61.49-.91a9.19,9.19,0,0,1,.55-.83,3.23,3.23,0,0,1,.6-.62,1.21,1.21,0,0,1,.61-.27.55.55,0,0,1,.37.09.84.84,0,0,1,.26.27,1.94,1.94,0,0,1,.15.36,2.71,2.71,0,0,1,.06.38,10,10,0,0,1,0,1.64,9.86,9.86,0,0,0,0,1.63,1.5,1.5,0,0,0,0,.2.48.48,0,0,0,.06.18.3.3,0,0,0,.11.14.41.41,0,0,0,.21,0,1.07,1.07,0,0,0,.56-.27,4.9,4.9,0,0,0,.54-.57c.17-.22.33-.44.48-.67s.25-.42.33-.57l.12-.21a.23.23,0,0,1,.18-.14.16.16,0,0,1,.17.07.31.31,0,0,1,0,.17.16.16,0,0,1,0,.12.69.69,0,0,1,0,.1,6.71,6.71,0,0,1-1.1,1.74,3.81,3.81,0,0,1-.8.71,1.93,1.93,0,0,1-.89.34.47.47,0,0,1-.43-.18,1.3,1.3,0,0,1-.24-.47,2.86,2.86,0,0,1-.13-.58c0-.21,0-.37,0-.49,0-.46-.05-.93-.05-1.4s0-.94,0-1.41v-.11a1.64,1.64,0,0,1,0-.18c0-.08-.06-.12-.13-.12S113.23,31.21,113.09,31.4Zm-1.62-6.07a5.75,5.75,0,0,0-.28,1c-.08.42-.15.87-.21,1.37s-.1,1-.13,1.43-.06.87-.08,1.23,0,.62,0,.77c.16-.37.33-.8.5-1.28s.31-1,.43-1.5a12.44,12.44,0,0,0,.29-1.53A6.37,6.37,0,0,0,112,25.5s0-.07,0-.14a.64.64,0,0,0,0-.2,1.89,1.89,0,0,0-.06-.18c0-.05-.06-.08-.1-.07S111.57,25.06,111.47,25.33Z" transform="translate(0)"/></g><g class="cls-2"><path class="cls-1" d="M118.46,40.51a1.09,1.09,0,0,1-.36-.28,1.32,1.32,0,0,1-.23-.44,2.11,2.11,0,0,1-.1-.5A2.66,2.66,0,0,1,118,38a6,6,0,0,1,.75-1.28,9.82,9.82,0,0,1,1-1.13,9.69,9.69,0,0,1,1-.9c0-.12,0-.24,0-.37l0-.37c-.06-.67-.13-1.33-.21-2a4.67,4.67,0,0,1-.47.77,10.47,10.47,0,0,1-.73,1,7.17,7.17,0,0,1-.82.83,1.41,1.41,0,0,1-.74.38.62.62,0,0,1-.37-.06.72.72,0,0,1-.23-.23.82.82,0,0,1-.13-.33,2.33,2.33,0,0,1-.06-.35,5.94,5.94,0,0,1,0-1.19c.06-.41.13-.8.22-1.18,0-.09,0-.18,0-.26a1.17,1.17,0,0,1,.07-.25.75.75,0,0,1,.18-.27.39.39,0,0,1,.28-.13.53.53,0,0,1,.41.12.51.51,0,0,1,.2.36,1.05,1.05,0,0,1-.07.4c-.06.16-.1.29-.14.4l-.12.45c0,.19-.09.39-.13.59s-.07.4-.09.58a1.89,1.89,0,0,0,0,.46.67.67,0,0,0,0,.17.09.09,0,0,0,.12.09.45.45,0,0,0,.2-.11l.25-.23.24-.26.16-.18a10.51,10.51,0,0,0,.87-1.23l.81-1.28a1.8,1.8,0,0,0,.18-.25.35.35,0,0,1,.26-.15.38.38,0,0,1,.26.07c.06,0,.11.11.15.25a2.71,2.71,0,0,1,.1.43,3.71,3.71,0,0,1,.06.45c0,.15,0,.26,0,.32,0,.57.09,1.16.12,1.78a15.79,15.79,0,0,1,0,1.82,11.69,11.69,0,0,1-.25,1.79,6.71,6.71,0,0,1-.6,1.66,3.75,3.75,0,0,1-.33.52,3.7,3.7,0,0,1-.42.46,2.52,2.52,0,0,1-.51.34,1.49,1.49,0,0,1-.58.17A1,1,0,0,1,118.46,40.51Zm1.48-4.45a7.74,7.74,0,0,0-.82,1,5.28,5.28,0,0,0-.6,1.09,2.49,2.49,0,0,0-.18,1.13c0,.08,0,.17,0,.27a1,1,0,0,0,.1.26.7.7,0,0,0,.18.2.36.36,0,0,0,.26.06.77.77,0,0,0,.29-.1,2,2,0,0,0,.27-.22,2,2,0,0,0,.23-.28l.19-.27a4,4,0,0,0,.39-.86c.1-.34.19-.69.26-1s.12-.72.16-1.07a8.82,8.82,0,0,0,.06-1Z" transform="translate(0)"/></g></g></g></svg>