<svg xmlns="http://www.w3.org/2000/svg" xmlns:xlink="http://www.w3.org/1999/xlink" width="193.027" height="47.696" viewBox="0 0 193.027 47.696">
  <defs>
    <clipPath id="clip-path">
      <rect id="Rectangle_13" data-name="Rectangle 13" width="68.918" height="18.728" fill="none"/>
    </clipPath>
  </defs>
  <g id="LOGO" transform="translate(-8 -8)">
    <g id="Group_1" data-name="Group 1" transform="translate(-445.863 165)">
      <path id="Path_1" data-name="Path 1" d="M170.076,34.757a6.2,6.2,0,0,0,.935-1.876,9.474,9.474,0,0,0,.429-2.043,8.885,8.885,0,0,0-.019-2.065,6.821,6.821,0,0,0-.589-1.945,9.273,9.273,0,0,0-2.527-3.155,10.741,10.741,0,0,0-3.538-1.93,9.17,9.17,0,0,0-3.938-.341,12.071,12.071,0,0,0-3.809,1.206,16.949,16.949,0,0,0-3.369,2.236,13.484,13.484,0,0,0-2.626,2.991,17.23,17.23,0,0,0-2.507,7.562,21.3,21.3,0,0,0-.029,4.04,16.285,16.285,0,0,0,.92,3.853,18.708,18.708,0,0,0,4.293,6.693,19.415,19.415,0,0,0,6.6,4.493,17.452,17.452,0,0,0,3.825,1.088,17.241,17.241,0,0,0,3.983.164,18.262,18.262,0,0,0,7.658-2.093,13.392,13.392,0,0,0,3.14-2.356,16.041,16.041,0,0,0,2.391-3.176,11.171,11.171,0,0,0,1.607-7.5,9.584,9.584,0,0,0-1.493-3.576,10.037,10.037,0,0,0-2.749-2.776,6.659,6.659,0,0,0-3.616-1.162,6.227,6.227,0,0,0-3.653,1.063A4.958,4.958,0,0,0,169.5,37.41a4.52,4.52,0,0,0,.073,1.93,2.473,2.473,0,0,0,1.063,1.487,3.016,3.016,0,0,0,1.858.436,2.22,2.22,0,0,0,1.681-.844,1.53,1.53,0,0,0-.065-1.82,1.113,1.113,0,0,0-.9-.35,1.02,1.02,0,0,0-.757.641,1.058,1.058,0,0,1,.742-.721,1.232,1.232,0,0,1,1.03.31,1.438,1.438,0,0,1,.467,1.006,1.9,1.9,0,0,1-1.062,1.892,3.536,3.536,0,0,1-3.291-.028,3.09,3.09,0,0,1-1.457-1.788,5.3,5.3,0,0,1-.211-2.26,6.526,6.526,0,0,1,.632-2.175,5.379,5.379,0,0,1,1.444-1.811,7.314,7.314,0,0,1,4.283-1.465,8,8,0,0,1,4.393,1.2,11.041,11.041,0,0,1,5.136,11.788,15.235,15.235,0,0,1-1.6,4.2,17.93,17.93,0,0,1-2.626,3.618,15.412,15.412,0,0,1-3.559,2.774,20,20,0,0,1-8.524,2.415q-1.1.075-2.216.046c-.371-.01-.741-.028-1.118-.06s-.761-.095-1.126-.148a19.351,19.351,0,0,1-4.307-1.2,21.575,21.575,0,0,1-7.279-5.009,20.332,20.332,0,0,1-4.716-7.493,18.226,18.226,0,0,1-.957-4.38,23.225,23.225,0,0,1,.111-4.416,18.347,18.347,0,0,1,2.99-8.288,15.1,15.1,0,0,1,3.04-3.261,17.253,17.253,0,0,1,3.752-2.307A13.381,13.381,0,0,1,160.7,20.17a10.2,10.2,0,0,1,4.413.572,11.676,11.676,0,0,1,3.741,2.3,9.669,9.669,0,0,1,2.528,3.55,7.347,7.347,0,0,1,.5,2.13,9.027,9.027,0,0,1-.119,2.159,9.673,9.673,0,0,1-.6,2.056,6.284,6.284,0,0,1-1.087,1.82" transform="translate(316.344 -168.568)" fill="#515151"/>
      <path id="Path_2" data-name="Path 2" d="M185.7,6.671a4.714,4.714,0,0,1-.7-1.745,6.12,6.12,0,0,1-.082-1.689,6.016,6.016,0,0,1,.382-1.646A4.675,4.675,0,0,1,186.3,0a4.678,4.678,0,0,1,.7,1.745,6.034,6.034,0,0,1,.079,1.689A6.118,6.118,0,0,1,186.7,5.08a4.719,4.719,0,0,1-1,1.591" transform="translate(294.259 -157)" fill="#515151"/>
      <path id="Path_3" data-name="Path 3" d="M166.044,6.691a4.711,4.711,0,0,1-1.179-1.461,6.112,6.112,0,0,1-.577-1.589,6.022,6.022,0,0,1-.121-1.686,4.678,4.678,0,0,1,.487-1.815A4.674,4.674,0,0,1,165.836,1.6a6.021,6.021,0,0,1,.574,1.59,6.142,6.142,0,0,1,.118,1.686,4.714,4.714,0,0,1-.484,1.814" transform="translate(306.18 -157.08)" fill="#515151"/>
      <path id="Path_4" data-name="Path 4" d="M137.811,30.5a4.71,4.71,0,0,1-1.878,0,6.129,6.129,0,0,1-1.6-.546,6.012,6.012,0,0,1-1.39-.962,4.678,4.678,0,0,1-1.11-1.517,4.673,4.673,0,0,1,1.88-.006,6.012,6.012,0,0,1,1.6.548,6.134,6.134,0,0,1,1.389.964,4.716,4.716,0,0,1,1.111,1.514" transform="translate(324.753 -172.736)" fill="#515151"/>
      <path id="Path_5" data-name="Path 5" d="M132.129,48.442a4.718,4.718,0,0,1-1.677.845,6.123,6.123,0,0,1-1.675.228,5.993,5.993,0,0,1-1.674-.237,4.667,4.667,0,0,1-1.672-.859,4.667,4.667,0,0,1,1.677-.847,6.013,6.013,0,0,1,1.675-.226,6.144,6.144,0,0,1,1.674.24,4.72,4.72,0,0,1,1.672.856" transform="translate(328.432 -184.208)" fill="#515151"/>
      <path id="Path_6" data-name="Path 6" d="M149.572,15.2a4.715,4.715,0,0,1-1.765-.642,6.128,6.128,0,0,1-1.315-1.062,6,6,0,0,1-.975-1.381A4.663,4.663,0,0,1,145,10.308a4.672,4.672,0,0,1,1.767.64,6.024,6.024,0,0,1,1.313,1.065,6.136,6.136,0,0,1,.973,1.383,4.718,4.718,0,0,1,.523,1.8" transform="translate(317.188 -162.924)" fill="#515151"/>
    </g>
    <text id="GOLDEN_HOUR" data-name="GOLDEN HOUR" transform="translate(62.027 28.784)" fill="#515151" font-size="19" font-family="Vollkorn-Bold, Vollkorn" font-weight="700"><tspan x="0" y="0">GOLDEN HOUR</tspan></text>
    <g id="Group_17" data-name="Group 17" transform="matrix(0.996, -0.087, 0.087, 0.996, 65.315, 37.039)">
      <g id="Group_16" data-name="Group 16" transform="translate(0 0)" clip-path="url(#clip-path)">
        <text id="Photography" transform="translate(0 11.497)" fill="#303030" font-size="13" font-family="BlackJackRegular, BlackJack"><tspan x="0" y="0" letter-spacing="0.019em">P</tspan><tspan y="0" letter-spacing="0.02em">h</tspan><tspan y="0" letter-spacing="0.019em">o</tspan><tspan y="0" letter-spacing="0.02em">t</tspan><tspan y="0" letter-spacing="0.019em">o</tspan><tspan y="0" letter-spacing="0.02em">g</tspan><tspan y="0" letter-spacing="0.019em">r</tspan><tspan y="0" letter-spacing="0.02em">a</tspan><tspan y="0" letter-spacing="0.019em">p</tspan><tspan y="0" letter-spacing="0.02em">h</tspan><tspan y="0">y</tspan></text>
      </g>
    </g>
  </g>
</svg>
