<svg xmlns="http://www.w3.org/2000/svg" xmlns:xlink="http://www.w3.org/1999/xlink" width="745.858" height="70" viewBox="0 0 745.858 70">
  <defs>
    <clipPath id="clip-path">
      <rect id="Rectangle_41" data-name="Rectangle 41" width="246.857" height="59.665" fill="none"/>
    </clipPath>
    <clipPath id="clip-path-2">
      <path id="Path_49" data-name="Path 49" d="M25.974,8.844a9.452,9.452,0,0,0-1.722.723A6.866,6.866,0,0,0,22.805,10.6a1.678,1.678,0,0,0-.62,1.206.947.947,0,0,0,.069.413,12.01,12.01,0,0,1,.62,2.79q.137,1.413.138,2.859a42.506,42.506,0,0,1-.621,6.1q-.619,3.963-1.791,8.578t-2.825,9.439a59.405,59.405,0,0,1-3.754,8.75,27.7,27.7,0,0,1-4.547,6.407,7.269,7.269,0,0,1-5.2,2.48,6.409,6.409,0,0,1-1.481-.172,6.373,6.373,0,0,0-1.481-.172,1.215,1.215,0,0,0-.93.413A1.525,1.525,0,0,0,.31,61.619a2.241,2.241,0,0,0,.792.551,3.1,3.1,0,0,0,1.034.241q.551.034,1.033.034a10.324,10.324,0,0,0,5.271-1.378,17.391,17.391,0,0,0,4.34-3.617,26.151,26.151,0,0,0,3.479-5.133,61.26,61.26,0,0,0,2.687-5.856q1.17-2.962,2.067-5.822L22.6,35.576a2.2,2.2,0,0,0,.138-.413c.045-.183.114-.276.207-.276s.138.093.138.276v.344q0,2.481.034,5.478t.276,6.1q.24,3.1.758,5.994a27.08,27.08,0,0,0,1.412,5.167,6.384,6.384,0,0,0,1.412,2.1,3.131,3.131,0,0,0,2.307.931,5.689,5.689,0,0,0,3.79-1.93,29.824,29.824,0,0,0,3.962-4.857Q39,51.561,40.856,48.15T44.2,41.81q1.48-2.927,2.515-4.926a8.184,8.184,0,0,1,1.309-2.136.285.285,0,0,1,.069.207q0,1.24.035,3.135t.24,4.065a41.541,41.541,0,0,0,.655,4.375,18.607,18.607,0,0,0,1.24,3.962,8.566,8.566,0,0,0,2,2.859,4.266,4.266,0,0,0,3,1.1,6.043,6.043,0,0,0,3.41-1.206,21.654,21.654,0,0,0,3.375-2.894,26.675,26.675,0,0,0,2.894-3.583A22.942,22.942,0,0,0,66.831,43.5q.207-.413.379-.826a2.321,2.321,0,0,0,.172-.9A.825.825,0,0,0,67,41.088a1.252,1.252,0,0,0-.723-.276,1.27,1.27,0,0,0-.93.378,5.2,5.2,0,0,0-.655.793q-.689.966-1.551,2.411a32.658,32.658,0,0,1-1.86,2.79,12.456,12.456,0,0,1-2.2,2.308,4.146,4.146,0,0,1-2.653.965,1.868,1.868,0,0,1-1.654-1.033,8.73,8.73,0,0,1-.964-2.446,17.108,17.108,0,0,1-.449-2.825q-.1-1.411-.1-2.17,0-4.755.449-9.37t1.206-9.232q.274-1.584.482-3.1a22.91,22.91,0,0,0,.207-3.1,9.374,9.374,0,0,0-.207-1.895,1.224,1.224,0,0,0-1.378-1,4.282,4.282,0,0,0-1.654.344,2.279,2.279,0,0,0-1,.861,5.708,5.708,0,0,0-.62,1.309,10.7,10.7,0,0,0-.38,1.481q-.138.759-.274,1.378a15.261,15.261,0,0,1-1.31,3.617q-.9,1.757-1.654,3.548-1.722,3.79-3.514,7.44t-3.72,7.373q-1.309,2.481-2.618,4.926t-2.825,4.857q-.207.278-.517.759t-.689.965a6.707,6.707,0,0,1-.758.827,1.1,1.1,0,0,1-.724.344q-.551,0-.792-1.275a23.449,23.449,0,0,1-.344-2.894q-.1-1.619-.068-3.135t.034-1.929q0-6.889.172-13.572t.172-13.574q0-.62-.034-2t-.172-2.825a14.948,14.948,0,0,0-.482-2.653,2.148,2.148,0,0,0-.966-1.481,4.249,4.249,0,0,0-1.928-.414,5.126,5.126,0,0,0-1.379.276" transform="translate(0 -8.568)" fill="none"/>
    </clipPath>
    <linearGradient id="linear-gradient" y1="1" x2="0.01" y2="1" gradientUnits="objectBoundingBox">
      <stop offset="0" stop-color="#d18a27"/>
      <stop offset="0.04" stop-color="#db9c48"/>
      <stop offset="0.17" stop-color="#c48226"/>
      <stop offset="0.24" stop-color="#be7e2a"/>
      <stop offset="0.39" stop-color="#d6b368"/>
      <stop offset="0.52" stop-color="#ffe68f"/>
      <stop offset="0.62" stop-color="#f4d480"/>
      <stop offset="0.72" stop-color="#fbdc7d"/>
      <stop offset="0.85" stop-color="#e5bb57"/>
      <stop offset="0.94" stop-color="#c48226"/>
      <stop offset="1" stop-color="#d2990e"/>
    </linearGradient>
    <clipPath id="clip-path-3">
      <path id="Path_50" data-name="Path 50" d="M101.338,63.138a4.027,4.027,0,0,1-1.068-1.412,6.478,6.478,0,0,1-.517-1.826,13.336,13.336,0,0,1-.138-1.826,18.8,18.8,0,0,1,.517-3.927,22.97,22.97,0,0,1,1.515-4.547,13.862,13.862,0,0,1,2.48-3.789,4.547,4.547,0,0,1,3.41-1.585,2.494,2.494,0,0,1,1.791.655,4.913,4.913,0,0,1,1.1,1.585,7.159,7.159,0,0,1,.551,2.032,15.805,15.805,0,0,1,.138,1.929,20.383,20.383,0,0,1-.276,3.273,17.7,17.7,0,0,1-.861,3.272,14.729,14.729,0,0,1-1.516,3,10.351,10.351,0,0,1-2.239,2.446,7.617,7.617,0,0,1-1.481.93,3.864,3.864,0,0,1-1.687.379,2.564,2.564,0,0,1-1.723-.586m.723-21.565a17.2,17.2,0,0,0-4.031,4.651,23.367,23.367,0,0,0-2.514,5.926,22.2,22.2,0,0,0-.861,5.787A15.487,15.487,0,0,0,95,61.105a9.874,9.874,0,0,0,1.1,2.963,6.548,6.548,0,0,0,2.032,2.17,5.473,5.473,0,0,0,3.136.861,7.986,7.986,0,0,0,2.824-.517,13.282,13.282,0,0,0,2.55-1.275,13.085,13.085,0,0,0,3.375-3.169,19.156,19.156,0,0,0,2.274-4A21.08,21.08,0,0,0,113.6,53.7a25.89,25.89,0,0,0,.413-4.582,17.55,17.55,0,0,0-.31-3.238,10.732,10.732,0,0,0-1.033-3.031,6.472,6.472,0,0,0-1.964-2.274,5.286,5.286,0,0,0-3.169-.9,8.539,8.539,0,0,0-5.477,1.895" transform="translate(-94.656 -39.678)" fill="none"/>
    </clipPath>
    <linearGradient id="linear-gradient-2" x1="-3.303" y1="1.197" x2="-3.268" y2="1.197" xlink:href="#linear-gradient"/>
    <clipPath id="clip-path-4">
      <path id="Path_51" data-name="Path 51" d="M137.837,32.512a4.717,4.717,0,0,0-2.343,2.068,20.454,20.454,0,0,0-1.034,2.894q-.62,2.067-1.24,4.788t-1.239,5.753q-.62,3.033-1.068,5.823t-.758,4.994a25.989,25.989,0,0,0-.31,3.238,1.7,1.7,0,0,0,.344,1.069,1.224,1.224,0,0,0,1.034.447,1.981,1.981,0,0,0,1.55-.655,5.593,5.593,0,0,0,.93-1.412q.343-.827,1.309-2.617t2.274-4.066q1.306-2.274,2.79-4.685t2.893-4.41a30.016,30.016,0,0,1,2.618-3.272q1.2-1.275,1.895-1.275a.562.562,0,0,1,.62.551,7.857,7.857,0,0,1,.069.9v6.476q0,2.274.137,4.685t.414,4.444a16.034,16.034,0,0,0,.758,3.342q.481,1.31,1.171,1.309a1.667,1.667,0,0,0,1.1-.344,3.722,3.722,0,0,0,.757-.9q.551-.826,1.55-2.652t2.308-4.1q1.308-2.274,2.79-4.719t2.894-4.445a27.411,27.411,0,0,1,2.653-3.272,3.367,3.367,0,0,1,2.067-1.275.759.759,0,0,1,.655.344,2.265,2.265,0,0,1,.344.792,6.158,6.158,0,0,1,.138.93c.022.322.034.575.034.758q0,3.169-.31,6.27t-.31,6.2q0,1.24.1,2.825a12.013,12.013,0,0,0,.585,3.031,6.267,6.267,0,0,0,1.414,2.411,3.511,3.511,0,0,0,2.652.965,8.1,8.1,0,0,0,3.893-1.171,27.325,27.325,0,0,0,4.134-2.859,36.646,36.646,0,0,0,3.72-3.548q1.688-1.86,2.721-3.238c.138-.183.286-.4.448-.655a1.356,1.356,0,0,0,.24-.723,2.855,2.855,0,0,0-.172-.965.745.745,0,0,0-.792-.482,1.6,1.6,0,0,0-1.24.655q-.552.656-.9,1.137-.69.9-1.929,2.308A33.22,33.22,0,0,1,179.52,58.9a21.077,21.077,0,0,1-2.927,2.238,5.142,5.142,0,0,1-2.653.93,1.372,1.372,0,0,1-1.068-.414,2.491,2.491,0,0,1-.551-.964,4.858,4.858,0,0,1-.207-1.206c-.024-.436-.034-.815-.034-1.137a65.664,65.664,0,0,1,.482-7.957,66.053,66.053,0,0,0,.482-7.958,8.323,8.323,0,0,0-.242-1.963,6.14,6.14,0,0,0-.757-1.826,4.536,4.536,0,0,0-1.344-1.378,3.4,3.4,0,0,0-1.929-.551,5.287,5.287,0,0,0-3.066,1.033,15.437,15.437,0,0,0-2.757,2.48,33.538,33.538,0,0,0-2.376,3.031q-1.1,1.585-1.93,2.756-1.377,2-2.79,3.962T153.2,54.009c-.093.138-.242.379-.449.723s-.378.517-.516.517q-.139,0-.207-.207a1.1,1.1,0,0,1-.068-.275,8.224,8.224,0,0,1-.276-2.136v-2.2q0-2,.07-4t.068-4a15.7,15.7,0,0,0-.1-1.653,8.4,8.4,0,0,0-.413-1.86,4.45,4.45,0,0,0-.861-1.516,1.927,1.927,0,0,0-1.516-.62A4.884,4.884,0,0,0,145.9,38.2a24.818,24.818,0,0,0-3.2,3.342q-1.55,1.929-2.86,3.927t-2.066,3.1q.344-2,.826-4a27.034,27.034,0,0,1,1.24-3.858q.276-.688.69-1.653t.827-1.964a18.31,18.31,0,0,0,.689-1.964,6.2,6.2,0,0,0,.276-1.654,1.937,1.937,0,0,0-.344-1.206,1.3,1.3,0,0,0-1.1-.448,7.619,7.619,0,0,0-3.031.688" transform="translate(-129.845 -31.824)" fill="none"/>
    </clipPath>
    <linearGradient id="linear-gradient-3" x1="-1.528" y1="1.125" x2="-1.516" y2="1.125" xlink:href="#linear-gradient"/>
    <clipPath id="clip-path-5">
      <path id="Path_52" data-name="Path 52" d="M218.058,49.2a34.93,34.93,0,0,1,1.516-3.951,22.042,22.042,0,0,1,1.929-3.465q1.032-1.489,2.066-1.49a.927.927,0,0,1,.93.519,2.532,2.532,0,0,1,.242,1.075,6.339,6.339,0,0,1-.759,2.875,18.745,18.745,0,0,1-4.271,5.475,19.711,19.711,0,0,1-2.412,1.837,22.217,22.217,0,0,1,.758-2.875m.792-9.939a19.854,19.854,0,0,0-3.961,5.2,29.81,29.81,0,0,0-2.549,6.374,22.171,22.171,0,0,0-.9,5.65,14.834,14.834,0,0,0,.414,3.548A8.32,8.32,0,0,0,213.2,63a7.133,7.133,0,0,0,2.376,2.067,7.233,7.233,0,0,0,3.514.792,15.957,15.957,0,0,0,5.442-.944,20.478,20.478,0,0,0,4.892-2.55,24.276,24.276,0,0,0,4.169-3.741,25.417,25.417,0,0,0,3.2-4.478,4.7,4.7,0,0,0,.482-.965,3.585,3.585,0,0,0,.138-1.1.633.633,0,0,0-.31-.551,1.154,1.154,0,0,0-.654-.206,1.5,1.5,0,0,0-1.24.62,13.843,13.843,0,0,0-.827,1.171,31.116,31.116,0,0,1-2.411,3.445,20.193,20.193,0,0,1-3.032,3.066,15.992,15.992,0,0,1-3.582,2.2,10.016,10.016,0,0,1-4.134.861,4.077,4.077,0,0,1-3.446-1.347,5.939,5.939,0,0,1-1.033-3.7,13.753,13.753,0,0,1,.345-2.9,11.727,11.727,0,0,0,3.444-2.072,24.918,24.918,0,0,0,3.48-3.489,22.379,22.379,0,0,0,2.687-4.075,8.61,8.61,0,0,0,1.067-3.835,4.425,4.425,0,0,0-1-2.97,3.547,3.547,0,0,0-2.859-1.175,7.315,7.315,0,0,0-5.064,2.136" transform="translate(-211.444 -37.128)" fill="none"/>
    </clipPath>
    <linearGradient id="linear-gradient-4" x1="-5.499" y1="1.203" x2="-5.473" y2="1.203" xlink:href="#linear-gradient"/>
    <clipPath id="clip-path-6">
      <path id="Path_53" data-name="Path 53" d="M249.262,35.2a4.221,4.221,0,0,0-1.482,2.274q-.345,1.586-.62,3.238t-.62,3.238q-1.032,4.961-2.1,10.335a53.558,53.558,0,0,0-1.068,10.472,2.123,2.123,0,0,0,.344,1.206,1.228,1.228,0,0,0,1.1.516,2.375,2.375,0,0,0,1.688-.689,5.451,5.451,0,0,0,1.136-1.516q1.172-2.618,2.411-5.133a54.887,54.887,0,0,1,2.757-4.926q1.239-2,2.756-4.2a24.786,24.786,0,0,1,3.238-3.858c.182-.183.436-.413.757-.689a1.387,1.387,0,0,1,.827-.413c.276,0,.448.184.517.551a4.943,4.943,0,0,1,.1.827q0,2-.138,3.927t-.136,3.927q0,1.309.1,2.893a10.269,10.269,0,0,0,.62,2.963,5.947,5.947,0,0,0,1.515,2.308,3.938,3.938,0,0,0,2.79.93,7.594,7.594,0,0,0,3.962-1.24,21.508,21.508,0,0,0,3.858-3.032,28.475,28.475,0,0,0,5.408-7.44c.092-.183.2-.413.311-.688a1.888,1.888,0,0,0,.172-.69,1.611,1.611,0,0,0-.31-.93.989.989,0,0,0-.861-.448,1.215,1.215,0,0,0-1.033.62q-.414.62-.689,1.1a28.386,28.386,0,0,1-1.585,2.687,26.524,26.524,0,0,1-2.343,3.066,18.7,18.7,0,0,1-2.721,2.549,4.632,4.632,0,0,1-2.79,1.068,1.813,1.813,0,0,1-1.275-.413,2.418,2.418,0,0,1-.654-1.033,4.955,4.955,0,0,1-.241-1.344q-.035-.724-.034-1.344,0-2.411.138-4.823t.138-4.823q0-.757-.07-1.86a10.564,10.564,0,0,0-.378-2.205,5.071,5.071,0,0,0-.93-1.86,2.029,2.029,0,0,0-1.654-.758,5.067,5.067,0,0,0-3.066,1.516,33.609,33.609,0,0,0-3.48,3.513q-1.722,2-3.2,4.065t-2.239,3.169q.275-2,.689-4a23.938,23.938,0,0,1,1.171-3.927q.62-1.654,1.205-3.617a13.131,13.131,0,0,0,.586-3.755,2.9,2.9,0,0,0-.448-1.722,1.873,1.873,0,0,0-1.62-.62,3.826,3.826,0,0,0-2.514,1.033" transform="translate(-243.371 -34.17)" fill="none"/>
    </clipPath>
    <linearGradient id="linear-gradient-5" x1="-4.554" y1="1.131" x2="-4.535" y2="1.131" xlink:href="#linear-gradient"/>
    <clipPath id="clip-path-7">
      <path id="Path_54" data-name="Path 54" d="M296.029,27.318a33.271,33.271,0,0,1,.792-5.477,12.1,12.1,0,0,1,2.411-.448,18.434,18.434,0,0,0,2.48-.379,23.775,23.775,0,0,1-1.034,2.859q-.689,1.619-1.55,3.307t-1.791,3.2a26.626,26.626,0,0,1-1.688,2.48q.208-2.755.38-5.546m2-12.642a51.154,51.154,0,0,1,1.619-4.927,26.245,26.245,0,0,1,2.136-4.409q1.169-1.894,2.342-1.895a.444.444,0,0,1,.413.276,2.459,2.459,0,0,1,.207.62,3.561,3.561,0,0,1,.07.689v.482a35.89,35.89,0,0,1-.552,5.994,44.06,44.06,0,0,1-1.378,5.857,16.46,16.46,0,0,1-2.825.447q-1.446.1-2.824.31a30.386,30.386,0,0,1,.792-3.444M304.261,0a5.783,5.783,0,0,0-4.375,2.2,23.593,23.593,0,0,0-3.479,5.271,47.719,47.719,0,0,0-2.549,6.2q-1.035,3.136-1.585,5a8.823,8.823,0,0,0-2.308.482,1.706,1.706,0,0,0-1.205,1.791,1.461,1.461,0,0,0,1.653,1.654,5.013,5.013,0,0,0,1.448-.207,50.072,50.072,0,0,0-.93,6.717q-.243,3.411-.242,6.787,0,1.309.138,3.273t.482,4.168a38.126,38.126,0,0,0,.965,4.409,20.081,20.081,0,0,0,1.55,3.962,9.212,9.212,0,0,0,2.274,2.86,4.8,4.8,0,0,0,3.135,1.1,7.866,7.866,0,0,0,4.2-1.344,23.289,23.289,0,0,0,4.064-3.272,34.886,34.886,0,0,0,3.514-4.1q1.584-2.17,2.55-3.824c.276-.459.527-.918.758-1.378a3.207,3.207,0,0,0,.344-1.447,1.058,1.058,0,0,0-.275-.723.883.883,0,0,0-.689-.31,1.376,1.376,0,0,0-1.034.551,6.505,6.505,0,0,0-.757,1.033q-.76,1.24-2.033,3.066a31.185,31.185,0,0,1-2.825,3.479,21.828,21.828,0,0,1-3.238,2.859,5.656,5.656,0,0,1-3.272,1.206,2.549,2.549,0,0,1-2.239-1.653,14.57,14.57,0,0,1-1.31-3.859,36.182,36.182,0,0,1-.62-4.375q-.173-2.17-.172-3.2v-.758a1.7,1.7,0,0,1,.138-.758,2.812,2.812,0,0,1,.447-.723c.207-.252.4-.493.586-.724q.48-.687.964-1.343a12.421,12.421,0,0,0,.9-1.412q1.72-2.826,3.306-6.029a33.426,33.426,0,0,0,2.411-6.373q.414-.068,1.24-.276t1.722-.448q.895-.24,1.654-.482a8.373,8.373,0,0,0,1.033-.379,4.268,4.268,0,0,0,.654-.517,1.087,1.087,0,0,0,.241-.792q0-.9-.965-.9a13.436,13.436,0,0,0-2.342.207q-1.173.206-2.342.344a37.907,37.907,0,0,0,1.136-5.374,40.021,40.021,0,0,0,.379-5.442q0-.758-.069-1.826a8.417,8.417,0,0,0-.378-2.032,4.518,4.518,0,0,0-.93-1.654A2.2,2.2,0,0,0,304.261,0Z" transform="translate(-288.76 0)" fill="none"/>
    </clipPath>
    <linearGradient id="linear-gradient-6" x1="-7.529" y1="1.072" x2="-7.503" y2="1.072" xlink:href="#linear-gradient"/>
    <clipPath id="clip-path-8">
      <path id="Path_55" data-name="Path 55" d="M328.059,30.17a7.38,7.38,0,0,0-1.585,2.134,12.782,12.782,0,0,0-.964,2.619,10.1,10.1,0,0,0-.345,2.411,11.08,11.08,0,0,0,.62,3.651,40.815,40.815,0,0,1-7.028,13.16,6.156,6.156,0,0,0-.586.827,1.886,1.886,0,0,0-.241.965.853.853,0,0,0,.965.965,1.506,1.506,0,0,0,1-.379c.3-.252.562-.493.793-.723a16.223,16.223,0,0,0,2.033-2.549q1-1.515,1.894-3.169t1.62-3.342q.722-1.688,1.206-3.066a29.736,29.736,0,0,1,1.688,2.928,37.071,37.071,0,0,1,1.55,3.479,31.364,31.364,0,0,1,1.137,3.583,13.983,13.983,0,0,1,.448,3.376,6.482,6.482,0,0,1-1.413,4.306,5.128,5.128,0,0,1-4.168,1.688,11.157,11.157,0,0,1-2.55-.276,7.456,7.456,0,0,1-2.342-1.033q-.345-.207-.586-.344a1.317,1.317,0,0,0-.654-.138q-1.1,0-1.1,1.033a1.583,1.583,0,0,0,.207.827,3.586,3.586,0,0,0,.551.689,7.241,7.241,0,0,0,3.824,1.86,24.435,24.435,0,0,0,4.306.413,25.083,25.083,0,0,0,6.786-.861,19.891,19.891,0,0,0,5.581-2.515,23.376,23.376,0,0,0,4.651-4.065,43.046,43.046,0,0,0,4.064-5.443,4.369,4.369,0,0,1,.38-.723,1.356,1.356,0,0,0,.24-.723,2.133,2.133,0,0,0-.207-.965.833.833,0,0,0-.826-.413,1.419,1.419,0,0,0-1.171.655q-.483.656-.827,1.136a25.99,25.99,0,0,1-2,2.584,38.877,38.877,0,0,1-3.031,3.169,28.308,28.308,0,0,1-3.306,2.687,4.859,4.859,0,0,1-2.894,1.068,8.139,8.139,0,0,0,1.206-2.549,10.4,10.4,0,0,0,.378-2.756,14.1,14.1,0,0,0-.688-4.341,28.53,28.53,0,0,0-1.723-4.168q-1.033-2.031-2.136-4.031a39.541,39.541,0,0,1-1.928-4,33.67,33.67,0,0,0,1.1-3.341,13.14,13.14,0,0,0,.482-3.48,7.14,7.14,0,0,0-.1-1.171,5.646,5.646,0,0,0-.345-1.206,2.482,2.482,0,0,0-.688-.965,1.605,1.605,0,0,0-1.068-.379,3.148,3.148,0,0,0-2.2.9" transform="translate(-317.93 -29.274)" fill="none"/>
    </clipPath>
    <linearGradient id="linear-gradient-7" x1="-6.689" y1="1.084" x2="-6.668" y2="1.084" xlink:href="#linear-gradient"/>
  </defs>
  <g id="Love_capturing_happy_moments_text" data-name="Love capturing happy moments text" transform="translate(-587 -122)">
    <text id="Love_capturing_HAPPY" data-name="Love capturing HAPPY" transform="translate(587 122)" fill="#62909a" font-size="50" font-family="Vollkorn-Regular, Vollkorn"><tspan x="4.4" y="48">Love capturing HAPPY</tspan></text>
    <g id="Group_155" data-name="Group 155" transform="translate(1086 128.667)">
      <g id="Group_50" data-name="Group 50" transform="translate(0 0)">
        <g id="Group_49" data-name="Group 49" clip-path="url(#clip-path)">
          <path id="Path_42" data-name="Path 42" d="M48.022,34.749a8.178,8.178,0,0,0-1.308,2.136q-1.034,2-2.515,4.926T40.857,48.15Q39,51.56,37.032,54.488a29.882,29.882,0,0,1-3.962,4.857,5.689,5.689,0,0,1-3.789,1.929,3.133,3.133,0,0,1-2.308-.93,6.384,6.384,0,0,1-1.412-2.1,27.08,27.08,0,0,1-1.412-5.167q-.517-2.894-.758-5.994t-.276-6.1q-.035-3-.034-5.477v-.344c0-.183-.046-.276-.138-.276s-.161.093-.207.276a2.183,2.183,0,0,1-.138.413q-.689,2.206-1.584,5.064t-2.068,5.822a61.253,61.253,0,0,1-2.686,5.856,26.183,26.183,0,0,1-3.48,5.133A17.37,17.37,0,0,1,8.44,61.068a10.325,10.325,0,0,1-5.271,1.378c-.321,0-.665-.012-1.033-.034A3.113,3.113,0,0,1,1.1,62.17a2.241,2.241,0,0,1-.792-.551A1.525,1.525,0,0,1,.379,59.69a1.215,1.215,0,0,1,.93-.413,6.333,6.333,0,0,1,1.481.172,6.409,6.409,0,0,0,1.481.172,7.267,7.267,0,0,0,5.2-2.48,27.675,27.675,0,0,0,4.547-6.407,59.374,59.374,0,0,0,3.755-8.75q1.654-4.822,2.825-9.439t1.791-8.578a42.515,42.515,0,0,0,.621-6.1q0-1.447-.138-2.859a12.043,12.043,0,0,0-.619-2.79.938.938,0,0,1-.07-.413,1.678,1.678,0,0,1,.62-1.206,6.866,6.866,0,0,1,1.448-1.033,9.4,9.4,0,0,1,1.722-.723,5.127,5.127,0,0,1,1.378-.276,4.264,4.264,0,0,1,1.929.413,2.155,2.155,0,0,1,.965,1.481,14.936,14.936,0,0,1,.482,2.653q.137,1.447.172,2.825t.034,2q0,6.89-.172,13.573t-.172,13.573q0,.413-.034,1.929t.068,3.135a23.712,23.712,0,0,0,.344,2.894q.24,1.276.792,1.275a1.1,1.1,0,0,0,.723-.344,6.806,6.806,0,0,0,.758-.827q.378-.481.69-.965t.516-.758q1.515-2.411,2.825-4.857t2.618-4.926q1.928-3.72,3.72-7.372t3.514-7.441q.758-1.791,1.654-3.548a15.261,15.261,0,0,0,1.31-3.617q.136-.62.275-1.378a10.7,10.7,0,0,1,.379-1.481,5.708,5.708,0,0,1,.62-1.309,2.267,2.267,0,0,1,1-.861,4.273,4.273,0,0,1,1.654-.344,1.224,1.224,0,0,1,1.378,1A9.369,9.369,0,0,1,55.6,17.18a22.91,22.91,0,0,1-.207,3.1q-.207,1.516-.482,3.1Q54.153,28,53.706,32.613t-.448,9.37q0,.759.1,2.17a17.189,17.189,0,0,0,.448,2.825,8.742,8.742,0,0,0,.965,2.446,1.869,1.869,0,0,0,1.654,1.033,4.146,4.146,0,0,0,2.653-.965,12.456,12.456,0,0,0,2.2-2.308,33.042,33.042,0,0,0,1.86-2.79Q64,42.948,64.7,41.983a5.086,5.086,0,0,1,.654-.792,1.215,1.215,0,0,1,1.654-.1.827.827,0,0,1,.378.689,2.318,2.318,0,0,1-.172.9q-.173.413-.379.827a23.007,23.007,0,0,1-1.895,3.273,26.723,26.723,0,0,1-2.894,3.583,21.689,21.689,0,0,1-3.376,2.894,6.046,6.046,0,0,1-3.41,1.206,4.272,4.272,0,0,1-3-1.1,8.581,8.581,0,0,1-2-2.859,18.607,18.607,0,0,1-1.24-3.962,41.772,41.772,0,0,1-.655-4.375q-.207-2.17-.241-4.065t-.034-3.135a.284.284,0,0,0-.07-.207" transform="translate(0 -2.781)"/>
          <path id="Path_43" data-name="Path 43" d="M95.517,52.148a23.361,23.361,0,0,1,2.515-5.925,17.2,17.2,0,0,1,4.03-4.651,8.539,8.539,0,0,1,5.478-1.895,5.284,5.284,0,0,1,3.169.9,6.469,6.469,0,0,1,1.964,2.274,10.766,10.766,0,0,1,1.034,3.031,17.614,17.614,0,0,1,.31,3.238A25.883,25.883,0,0,1,113.6,53.7a21.066,21.066,0,0,1-1.308,4.444,19.14,19.14,0,0,1-2.274,4,13.1,13.1,0,0,1-3.376,3.169,13.263,13.263,0,0,1-2.55,1.275,7.983,7.983,0,0,1-2.824.517,5.47,5.47,0,0,1-3.135-.861,6.53,6.53,0,0,1-2.033-2.17A9.874,9.874,0,0,1,95,61.105a15.534,15.534,0,0,1-.344-3.169,22.185,22.185,0,0,1,.861-5.787m8.612-6.339a13.858,13.858,0,0,0-2.481,3.789,23.014,23.014,0,0,0-1.515,4.547,18.8,18.8,0,0,0-.517,3.927,13.445,13.445,0,0,0,.138,1.826,6.478,6.478,0,0,0,.517,1.826,4.027,4.027,0,0,0,1.068,1.412,2.568,2.568,0,0,0,1.723.586,3.858,3.858,0,0,0,1.688-.379,7.613,7.613,0,0,0,1.481-.93,10.354,10.354,0,0,0,2.24-2.446,14.691,14.691,0,0,0,1.516-3,17.688,17.688,0,0,0,.861-3.273,20.294,20.294,0,0,0,.276-3.273,15.819,15.819,0,0,0-.138-1.929,7.191,7.191,0,0,0-.551-2.032,4.912,4.912,0,0,0-1.1-1.585,2.5,2.5,0,0,0-1.791-.655,4.548,4.548,0,0,0-3.41,1.585" transform="translate(-30.719 -12.877)"/>
          <path id="Path_44" data-name="Path 44" d="M149.481,61.588a15.981,15.981,0,0,1-.758-3.342q-.277-2.031-.413-4.444t-.138-4.685V42.641a7.857,7.857,0,0,0-.069-.9.562.562,0,0,0-.62-.551q-.69,0-1.895,1.275a30.108,30.108,0,0,0-2.619,3.273q-1.412,2-2.893,4.409t-2.79,4.685q-1.31,2.274-2.274,4.065T133.7,61.519a5.581,5.581,0,0,1-.93,1.412,1.98,1.98,0,0,1-1.55.655,1.223,1.223,0,0,1-1.034-.448,1.7,1.7,0,0,1-.344-1.068,25.989,25.989,0,0,1,.31-3.238q.31-2.2.758-5t1.068-5.822q.62-3.03,1.24-5.753t1.24-4.788a20.388,20.388,0,0,1,1.033-2.894,4.716,4.716,0,0,1,2.343-2.067,7.609,7.609,0,0,1,3.031-.689,1.307,1.307,0,0,1,1.1.448,1.931,1.931,0,0,1,.344,1.206,6.172,6.172,0,0,1-.276,1.654,18.157,18.157,0,0,1-.688,1.964q-.413,1-.827,1.964t-.689,1.654a26.778,26.778,0,0,0-1.24,3.858q-.483,2-.827,4,.757-1.1,2.067-3.1t2.859-3.927a24.857,24.857,0,0,1,3.2-3.342,4.884,4.884,0,0,1,3.032-1.412,1.925,1.925,0,0,1,1.516.62,4.45,4.45,0,0,1,.861,1.516,8.384,8.384,0,0,1,.413,1.86,15.723,15.723,0,0,1,.1,1.654q0,2-.069,4t-.069,4v2.2a8.22,8.22,0,0,0,.276,2.136,1.108,1.108,0,0,0,.068.276c.046.138.114.207.207.207q.207,0,.517-.517t.448-.723q1.239-2.067,2.653-4.031t2.79-3.962q.828-1.17,1.93-2.756a33.633,33.633,0,0,1,2.376-3.031,15.46,15.46,0,0,1,2.757-2.48,5.287,5.287,0,0,1,3.066-1.033,3.4,3.4,0,0,1,1.929.551,4.536,4.536,0,0,1,1.344,1.378,6.14,6.14,0,0,1,.757,1.826,8.324,8.324,0,0,1,.242,1.964,65.913,65.913,0,0,1-.482,7.958,65.667,65.667,0,0,0-.482,7.958c0,.322.011.7.034,1.137a4.853,4.853,0,0,0,.207,1.206,2.49,2.49,0,0,0,.551.965,1.374,1.374,0,0,0,1.068.413,5.142,5.142,0,0,0,2.653-.93A21.075,21.075,0,0,0,179.52,58.9a33.208,33.208,0,0,0,2.687-2.721q1.24-1.411,1.929-2.308.344-.481.9-1.137a1.6,1.6,0,0,1,1.24-.655.746.746,0,0,1,.792.482,2.874,2.874,0,0,1,.172.965,1.357,1.357,0,0,1-.241.723c-.161.253-.31.471-.448.655q-1.034,1.379-2.721,3.238a36.574,36.574,0,0,1-3.72,3.548,27.325,27.325,0,0,1-4.134,2.859,8.088,8.088,0,0,1-3.893,1.171,3.513,3.513,0,0,1-2.653-.965,6.266,6.266,0,0,1-1.413-2.411,12.013,12.013,0,0,1-.585-3.031q-.1-1.584-.1-2.825,0-3.1.31-6.2t.31-6.27c0-.183-.012-.436-.034-.758a6.158,6.158,0,0,0-.138-.93,2.258,2.258,0,0,0-.344-.792.761.761,0,0,0-.655-.344,3.368,3.368,0,0,0-2.067,1.275,27.424,27.424,0,0,0-2.653,3.273q-1.412,2-2.894,4.444t-2.79,4.719q-1.31,2.274-2.308,4.1t-1.55,2.653a3.733,3.733,0,0,1-.758.9,1.661,1.661,0,0,1-1.1.344q-.688,0-1.171-1.309" transform="translate(-42.139 -10.328)"/>
          <path id="Path_45" data-name="Path 45" d="M215.579,65.066A7.129,7.129,0,0,1,213.2,63a8.314,8.314,0,0,1-1.344-2.963,14.866,14.866,0,0,1-.414-3.548,22.171,22.171,0,0,1,.9-5.65,29.741,29.741,0,0,1,2.549-6.373,19.857,19.857,0,0,1,3.961-5.2,7.315,7.315,0,0,1,5.064-2.136,3.549,3.549,0,0,1,2.86,1.175,4.428,4.428,0,0,1,1,2.97,8.61,8.61,0,0,1-1.067,3.835,22.372,22.372,0,0,1-2.687,4.076,24.949,24.949,0,0,1-3.48,3.489,11.727,11.727,0,0,1-3.444,2.072,13.755,13.755,0,0,0-.345,2.9,5.94,5.94,0,0,0,1.033,3.7,4.077,4.077,0,0,0,3.446,1.347,10.014,10.014,0,0,0,4.134-.861,16.012,16.012,0,0,0,3.583-2.2,20.22,20.22,0,0,0,3.031-3.066,31.206,31.206,0,0,0,2.411-3.445,14.066,14.066,0,0,1,.827-1.171,1.5,1.5,0,0,1,1.24-.62,1.161,1.161,0,0,1,.655.207.634.634,0,0,1,.31.551,3.579,3.579,0,0,1-.138,1.1,4.714,4.714,0,0,1-.482.965,25.425,25.425,0,0,1-3.2,4.478,24.247,24.247,0,0,1-4.168,3.741,20.464,20.464,0,0,1-4.892,2.549,15.938,15.938,0,0,1-5.442.944,7.229,7.229,0,0,1-3.514-.792M221.5,41.787a21.934,21.934,0,0,0-1.929,3.465,34.93,34.93,0,0,0-1.516,3.951,22.217,22.217,0,0,0-.758,2.875,19.711,19.711,0,0,0,2.412-1.837,18.762,18.762,0,0,0,4.272-5.475,6.338,6.338,0,0,0,.758-2.875,2.538,2.538,0,0,0-.241-1.074.928.928,0,0,0-.93-.52q-1.033,0-2.067,1.49" transform="translate(-68.621 -12.049)"/>
          <path id="Path_46" data-name="Path 46" d="M243.715,65.966a2.119,2.119,0,0,1-.344-1.206,53.621,53.621,0,0,1,1.068-10.472q1.067-5.374,2.1-10.335.343-1.585.62-3.238t.62-3.238a4.22,4.22,0,0,1,1.481-2.274,3.825,3.825,0,0,1,2.515-1.033,1.872,1.872,0,0,1,1.619.62,2.9,2.9,0,0,1,.448,1.722,13.153,13.153,0,0,1-.586,3.755q-.586,1.964-1.206,3.617a23.984,23.984,0,0,0-1.171,3.927q-.413,2-.689,4,.757-1.1,2.239-3.169t3.2-4.065a33.552,33.552,0,0,1,3.479-3.514,5.071,5.071,0,0,1,3.066-1.516,2.029,2.029,0,0,1,1.654.758,5.081,5.081,0,0,1,.93,1.86,10.613,10.613,0,0,1,.379,2.2q.068,1.1.069,1.86,0,2.412-.138,4.823t-.138,4.823q0,.62.034,1.344a4.955,4.955,0,0,0,.241,1.344,2.413,2.413,0,0,0,.655,1.033,1.81,1.81,0,0,0,1.275.413,4.632,4.632,0,0,0,2.79-1.068,18.7,18.7,0,0,0,2.721-2.549,26.466,26.466,0,0,0,2.343-3.066,28.533,28.533,0,0,0,1.585-2.687q.275-.481.689-1.1a1.215,1.215,0,0,1,1.033-.62.991.991,0,0,1,.861.448,1.615,1.615,0,0,1,.31.93,1.888,1.888,0,0,1-.172.689c-.115.276-.219.506-.31.689a28.475,28.475,0,0,1-5.408,7.441,21.534,21.534,0,0,1-3.858,3.031,7.6,7.6,0,0,1-3.962,1.24,3.936,3.936,0,0,1-2.79-.93,5.941,5.941,0,0,1-1.516-2.308,10.3,10.3,0,0,1-.62-2.963q-.1-1.585-.1-2.894,0-2,.137-3.927t.138-3.927a4.954,4.954,0,0,0-.1-.827q-.1-.551-.517-.551a1.385,1.385,0,0,0-.827.413q-.483.413-.758.689a24.754,24.754,0,0,0-3.238,3.858q-1.516,2.206-2.756,4.2a54.88,54.88,0,0,0-2.756,4.926q-1.24,2.516-2.412,5.133a5.461,5.461,0,0,1-1.136,1.516,2.375,2.375,0,0,1-1.688.689,1.228,1.228,0,0,1-1.1-.517" transform="translate(-78.982 -11.089)"/>
          <path id="Path_47" data-name="Path 47" d="M302.539,26.629q-1.586,3.2-3.306,6.029a12.4,12.4,0,0,1-.9,1.412q-.482.656-.964,1.344c-.185.23-.38.471-.586.723a2.846,2.846,0,0,0-.448.723,1.713,1.713,0,0,0-.138.758v.758q0,1.033.172,3.2a36.163,36.163,0,0,0,.62,4.375,14.581,14.581,0,0,0,1.31,3.858,2.547,2.547,0,0,0,2.238,1.654,5.656,5.656,0,0,0,3.273-1.206,21.862,21.862,0,0,0,3.238-2.859,31.117,31.117,0,0,0,2.825-3.479q1.274-1.825,2.033-3.066a6.525,6.525,0,0,1,.758-1.033,1.38,1.38,0,0,1,1.033-.551.884.884,0,0,1,.689.31,1.058,1.058,0,0,1,.276.723,3.2,3.2,0,0,1-.345,1.447c-.23.46-.482.919-.758,1.378q-.966,1.654-2.549,3.824a34.886,34.886,0,0,1-3.514,4.1,23.3,23.3,0,0,1-4.065,3.273,7.867,7.867,0,0,1-4.2,1.344,4.8,4.8,0,0,1-3.136-1.1,9.209,9.209,0,0,1-2.274-2.859,20.04,20.04,0,0,1-1.55-3.962,37.841,37.841,0,0,1-.965-4.409q-.346-2.2-.482-4.168t-.138-3.273q0-3.375.242-6.786a50.174,50.174,0,0,1,.929-6.718,5.009,5.009,0,0,1-1.447.207,1.461,1.461,0,0,1-1.653-1.654,1.706,1.706,0,0,1,1.205-1.791,8.845,8.845,0,0,1,2.308-.482q.551-1.86,1.585-5a47.583,47.583,0,0,1,2.549-6.2A23.593,23.593,0,0,1,299.886,2.2,5.783,5.783,0,0,1,304.261,0a2.2,2.2,0,0,1,1.723.689,4.518,4.518,0,0,1,.93,1.654,8.423,8.423,0,0,1,.378,2.032q.069,1.069.069,1.826a40.023,40.023,0,0,1-.379,5.443,37.981,37.981,0,0,1-1.136,5.374q1.17-.137,2.342-.344a13.449,13.449,0,0,1,2.342-.207q.964,0,.965.9a1.088,1.088,0,0,1-.241.792,4.31,4.31,0,0,1-.654.517,8.281,8.281,0,0,1-1.034.379q-.759.242-1.654.482t-1.722.448q-.827.207-1.24.276a33.381,33.381,0,0,1-2.411,6.373m-6.511.689q-.173,2.79-.379,5.546a26.445,26.445,0,0,0,1.688-2.48q.93-1.515,1.791-3.2t1.55-3.307a23.748,23.748,0,0,0,1.033-2.859,18.407,18.407,0,0,1-2.48.379,12.124,12.124,0,0,0-2.412.448,33.422,33.422,0,0,0-.792,5.477M301.781,5.34a26.3,26.3,0,0,0-2.136,4.409,51.2,51.2,0,0,0-1.619,4.926,30.271,30.271,0,0,0-.792,3.445q1.377-.207,2.824-.31a16.4,16.4,0,0,0,2.825-.448,44.133,44.133,0,0,0,1.378-5.856,35.879,35.879,0,0,0,.551-5.994V5.03a3.565,3.565,0,0,0-.069-.689,2.5,2.5,0,0,0-.207-.62.444.444,0,0,0-.413-.276q-1.171,0-2.343,1.895" transform="translate(-93.712)"/>
          <path id="Path_48" data-name="Path 48" d="M330.883,39.815a39.539,39.539,0,0,0,1.928,4q1.1,2,2.137,4.031a28.452,28.452,0,0,1,1.722,4.168,14.083,14.083,0,0,1,.689,4.341,10.4,10.4,0,0,1-.379,2.756,8.124,8.124,0,0,1-1.206,2.549,4.86,4.86,0,0,0,2.894-1.068,28.371,28.371,0,0,0,3.308-2.687,39.1,39.1,0,0,0,3.031-3.169,26.049,26.049,0,0,0,2-2.584q.344-.481.827-1.137A1.421,1.421,0,0,1,349,50.357a.834.834,0,0,1,.827.413,2.124,2.124,0,0,1,.206.965,1.356,1.356,0,0,1-.24.723,4.473,4.473,0,0,0-.38.723,43,43,0,0,1-4.064,5.443,23.319,23.319,0,0,1-4.651,4.065,19.891,19.891,0,0,1-5.581,2.515,25.055,25.055,0,0,1-6.786.861,24.5,24.5,0,0,1-4.306-.413,7.237,7.237,0,0,1-3.824-1.86,3.665,3.665,0,0,1-.551-.689,1.581,1.581,0,0,1-.207-.827q0-1.033,1.1-1.033a1.33,1.33,0,0,1,.655.138c.16.093.355.207.586.344a7.456,7.456,0,0,0,2.343,1.033,11.145,11.145,0,0,0,2.549.276,5.127,5.127,0,0,0,4.168-1.688,6.485,6.485,0,0,0,1.412-4.306,13.987,13.987,0,0,0-.448-3.376,31.058,31.058,0,0,0-1.137-3.583,36.726,36.726,0,0,0-1.55-3.479,29.663,29.663,0,0,0-1.687-2.928q-.483,1.379-1.206,3.066t-1.619,3.342q-.9,1.654-1.894,3.169a16.226,16.226,0,0,1-2.033,2.549c-.231.23-.494.471-.793.723a1.5,1.5,0,0,1-1,.379.853.853,0,0,1-.965-.965,1.875,1.875,0,0,1,.242-.965,6.086,6.086,0,0,1,.585-.827,40.834,40.834,0,0,0,7.028-13.159,11.087,11.087,0,0,1-.62-3.652,10.087,10.087,0,0,1,.344-2.411,12.749,12.749,0,0,1,.965-2.618,7.385,7.385,0,0,1,1.585-2.136,3.152,3.152,0,0,1,2.2-.9,1.607,1.607,0,0,1,1.069.379,2.5,2.5,0,0,1,.688.965,5.594,5.594,0,0,1,.344,1.206,7.141,7.141,0,0,1,.1,1.171,13.152,13.152,0,0,1-.482,3.479,33.452,33.452,0,0,1-1.1,3.342" transform="translate(-103.179 -9.5)"/>
        </g>
      </g>
      <g id="Group_52" data-name="Group 52" transform="translate(0 5.787)">
        <g id="Group_51" data-name="Group 51" clip-path="url(#clip-path-2)">
          <rect id="Rectangle_42" data-name="Rectangle 42" width="67.382" height="53.878" transform="translate(0 0)" fill="url(#linear-gradient)"/>
        </g>
      </g>
      <g id="Group_54" data-name="Group 54" transform="translate(63.937 26.801)">
        <g id="Group_53" data-name="Group 53" clip-path="url(#clip-path-3)">
          <rect id="Rectangle_43" data-name="Rectangle 43" width="19.36" height="27.421" transform="translate(0 0)" fill="url(#linear-gradient-2)"/>
        </g>
      </g>
      <g id="Group_56" data-name="Group 56" transform="translate(87.706 21.496)">
        <g id="Group_55" data-name="Group 55" clip-path="url(#clip-path-4)">
          <rect id="Rectangle_44" data-name="Rectangle 44" width="57.391" height="33.898" transform="translate(0 0)" fill="url(#linear-gradient-3)"/>
        </g>
      </g>
      <g id="Group_58" data-name="Group 58" transform="translate(142.823 25.079)">
        <g id="Group_57" data-name="Group 57" clip-path="url(#clip-path-5)">
          <rect id="Rectangle_45" data-name="Rectangle 45" width="25.974" height="28.73" transform="translate(0 0)" fill="url(#linear-gradient-4)"/>
        </g>
      </g>
      <g id="Group_60" data-name="Group 60" transform="translate(164.389 23.081)">
        <g id="Group_59" data-name="Group 59" clip-path="url(#clip-path-6)">
          <rect id="Rectangle_46" data-name="Rectangle 46" width="36.102" height="32.313" transform="translate(0 0)" fill="url(#linear-gradient-5)"/>
        </g>
      </g>
      <g id="Group_62" data-name="Group 62" transform="translate(195.048 0)">
        <g id="Group_61" data-name="Group 61" clip-path="url(#clip-path-7)">
          <rect id="Rectangle_47" data-name="Rectangle 47" width="25.905" height="55.669" transform="translate(0 0)" fill="url(#linear-gradient-6)"/>
        </g>
      </g>
      <g id="Group_64" data-name="Group 64" transform="translate(214.751 19.774)">
        <g id="Group_63" data-name="Group 63" clip-path="url(#clip-path-8)">
          <rect id="Rectangle_48" data-name="Rectangle 48" width="32.106" height="36.791" transform="translate(0 0)" fill="url(#linear-gradient-7)"/>
        </g>
      </g>
    </g>
  </g>
</svg>
