<svg xmlns="http://www.w3.org/2000/svg" width="27" height="27" viewBox="0 0 27 27">
  <g id="Watsapp" transform="translate(0)">
    <path id="XMLID_469_" d="M93.778,88.18c-.053-.025-2.021-.995-2.371-1.12a1.362,1.362,0,0,0-.458-.1.78.78,0,0,0-.663.393c-.2.292-.792.988-.976,1.2-.024.027-.057.06-.076.06s-.322-.125-.414-.166a10.358,10.358,0,0,1-3.934-3.495.218.218,0,0,1-.033-.078.635.635,0,0,1,.115-.136c.107-.106.223-.246.336-.381.053-.064.107-.128.159-.189a2.12,2.12,0,0,0,.32-.508l.044-.089A.918.918,0,0,0,85.8,82.7c-.047-.093-.878-2.1-.966-2.31-.212-.509-.493-.745-.883-.745-.036,0,0,0-.152.006a4.718,4.718,0,0,0-1.637.421A3.426,3.426,0,0,0,80.89,82.99a6.282,6.282,0,0,0,1.362,3.459c.01.014.029.041.056.081a12.823,12.823,0,0,0,5.5,4.775,8.945,8.945,0,0,0,3.322.849h0a5.188,5.188,0,0,0,.541-.032l.1-.009A3.492,3.492,0,0,0,94.2,90.39a2.724,2.724,0,0,0,.155-1.793A1.242,1.242,0,0,0,93.778,88.18Z" transform="translate(-73.799 -72.666)" fill="#62909a"/>
    <path id="XMLID_470_" d="M13.74,0A13.227,13.227,0,0,0,.478,13.162,13.065,13.065,0,0,0,2.3,19.818L.019,26.537a.351.351,0,0,0,.438.447l7.006-2.226A13.283,13.283,0,0,0,27,13.162,13.226,13.226,0,0,0,13.74,0Zm0,23.581a10.506,10.506,0,0,1-5.78-1.723.351.351,0,0,0-.3-.041l-3.51,1.116L5.285,19.59a.351.351,0,0,0-.049-.32,10.277,10.277,0,0,1-2-6.108,10.5,10.5,0,1,1,10.5,10.419Z" transform="translate(0)" fill="#62909a"/>
  </g>
</svg>
